<svg width="257" height="291" viewBox="0 0 257 291" fill="none" xmlns="http://www.w3.org/2000/svg">
<path d="M1.5 288C2.32843 288 3 288.672 3 289.5C3 290.328 2.32843 291 1.5 291C0.671573 291 8.00843e-09 290.328 1.78873e-08 289.5C2.77662e-08 288.672 0.671573 288 1.5 288Z" fill="white" fill-opacity="0.2"/>
<path d="M1.5 269C2.32843 269 3 269.672 3 270.5C3 271.328 2.32843 272 1.5 272C0.671573 272 2.34581e-07 271.328 2.4446e-07 270.5C2.54339e-07 269.672 0.671573 269 1.5 269Z" fill="white" fill-opacity="0.2"/>
<path d="M1.5 250C2.32843 250 3 250.672 3 251.5C3 252.328 2.32843 253 1.5 253C0.671573 253 4.61154e-07 252.328 4.71033e-07 251.5C4.80912e-07 250.672 0.671573 250 1.5 250Z" fill="white" fill-opacity="0.2"/>
<path d="M1.5 231C2.32843 231 3 231.672 3 232.5C3 233.328 2.32843 234 1.5 234C0.671574 234 6.87727e-07 233.328 6.97606e-07 232.5C7.07484e-07 231.672 0.671574 231 1.5 231Z" fill="white" fill-opacity="0.2"/>
<path d="M1.5 212C2.32843 212 3 212.672 3 213.5C3 214.328 2.32843 215 1.5 215C0.671574 215 9.14299e-07 214.328 9.24178e-07 213.5C9.34057e-07 212.672 0.671574 212 1.5 212Z" fill="white" fill-opacity="0.2"/>
<path d="M1.5 193C2.32843 193 3 193.672 3 194.5C3 195.328 2.32843 196 1.5 196C0.671574 196 1.14087e-06 195.328 1.15075e-06 194.5C1.16063e-06 193.672 0.671574 193 1.5 193Z" fill="white" fill-opacity="0.2"/>
<path d="M1.5 174C2.32843 174 3 174.672 3 175.5C3 176.328 2.32843 177 1.5 177C0.671574 177 1.36744e-06 176.328 1.37732e-06 175.5C1.3872e-06 174.672 0.671574 174 1.5 174Z" fill="white" fill-opacity="0.2"/>
<path d="M1.5 155C2.32843 155 3 155.672 3 156.5C3 157.328 2.32843 158 1.5 158C0.671574 158 1.59402e-06 157.328 1.6039e-06 156.5C1.61378e-06 155.672 0.671574 155 1.5 155Z" fill="white" fill-opacity="0.2"/>
<path d="M1.5 136C2.32843 136 3 136.672 3 137.5C3 138.328 2.32843 139 1.5 139C0.671575 139 1.82059e-06 138.328 1.83047e-06 137.5C1.84035e-06 136.672 0.671575 136 1.5 136Z" fill="white" fill-opacity="0.2"/>
<path d="M1.5 117C2.32843 117 3 117.672 3 118.5C3 119.328 2.32843 120 1.5 120C0.671575 120 2.04716e-06 119.328 2.05704e-06 118.5C2.06692e-06 117.672 0.671575 117 1.5 117Z" fill="white" fill-opacity="0.2"/>
<path d="M1.5 98C2.32843 98 3 98.6716 3 99.5C3 100.328 2.32843 101 1.5 101C0.671575 101 2.27374e-06 100.328 2.28361e-06 99.5C2.29349e-06 98.6716 0.671575 98 1.5 98Z" fill="white" fill-opacity="0.2"/>
<path d="M1.5 79C2.32843 79 3 79.6716 3 80.5C3 81.3284 2.32843 82 1.5 82C0.671575 82 2.50031e-06 81.3284 2.51019e-06 80.5C2.52007e-06 79.6716 0.671575 79 1.5 79Z" fill="white" fill-opacity="0.2"/>
<path d="M1.5 60C2.32843 60 3 60.6716 3 61.5C3 62.3284 2.32843 63 1.5 63C0.671576 63 2.72688e-06 62.3284 2.73676e-06 61.5C2.74664e-06 60.6716 0.671576 60 1.5 60Z" fill="white" fill-opacity="0.2"/>
<path d="M1.5 41C2.32843 41 3 41.6716 3 42.5C3 43.3284 2.32843 44 1.5 44C0.671576 44 2.95345e-06 43.3284 2.96333e-06 42.5C2.97321e-06 41.6716 0.671576 41 1.5 41Z" fill="white" fill-opacity="0.2"/>
<path d="M1.5 22C2.32843 22 3 22.6716 3 23.5C3 24.3284 2.32843 25 1.5 25C0.671576 25 3.18003e-06 24.3284 3.18991e-06 23.5C3.19978e-06 22.6716 0.671576 22 1.5 22Z" fill="white" fill-opacity="0.2"/>
<path d="M1.5 3C2.32843 3 3 3.67157 3 4.5C3 5.32843 2.32843 6 1.5 6C0.671576 6 3.4066e-06 5.32843 3.41648e-06 4.5C3.42636e-06 3.67157 0.671576 3 1.5 3Z" fill="white" fill-opacity="0.2"/>
<path d="M1.5 -16C2.32843 -16 3 -15.3284 3 -14.5C3 -13.6716 2.32843 -13 1.5 -13C0.671576 -13 3.63317e-06 -13.6716 3.64305e-06 -14.5C3.65293e-06 -15.3284 0.671577 -16 1.5 -16Z" fill="white" fill-opacity="0.2"/>
<path d="M1.5 -35C2.32843 -35 3 -34.3284 3 -33.5C3 -32.6716 2.32843 -32 1.5 -32C0.671577 -32 3.85974e-06 -32.6716 3.86962e-06 -33.5C3.8795e-06 -34.3284 0.671577 -35 1.5 -35Z" fill="white" fill-opacity="0.2"/>
<path d="M20.5 288C21.3284 288 22 288.672 22 289.5C22 290.328 21.3284 291 20.5 291C19.6716 291 19 290.328 19 289.5C19 288.672 19.6716 288 20.5 288Z" fill="white" fill-opacity="0.2"/>
<path d="M20.5 269C21.3284 269 22 269.672 22 270.5C22 271.328 21.3284 272 20.5 272C19.6716 272 19 271.328 19 270.5C19 269.672 19.6716 269 20.5 269Z" fill="white" fill-opacity="0.2"/>
<path d="M20.5 250C21.3284 250 22 250.672 22 251.5C22 252.328 21.3284 253 20.5 253C19.6716 253 19 252.328 19 251.5C19 250.672 19.6716 250 20.5 250Z" fill="white" fill-opacity="0.2"/>
<path d="M20.5 231C21.3284 231 22 231.672 22 232.5C22 233.328 21.3284 234 20.5 234C19.6716 234 19 233.328 19 232.5C19 231.672 19.6716 231 20.5 231Z" fill="white" fill-opacity="0.2"/>
<path d="M20.5 212C21.3284 212 22 212.672 22 213.5C22 214.328 21.3284 215 20.5 215C19.6716 215 19 214.328 19 213.5C19 212.672 19.6716 212 20.5 212Z" fill="white" fill-opacity="0.2"/>
<path d="M20.5 193C21.3284 193 22 193.672 22 194.5C22 195.328 21.3284 196 20.5 196C19.6716 196 19 195.328 19 194.5C19 193.672 19.6716 193 20.5 193Z" fill="white" fill-opacity="0.2"/>
<path d="M20.5 174C21.3284 174 22 174.672 22 175.5C22 176.328 21.3284 177 20.5 177C19.6716 177 19 176.328 19 175.5C19 174.672 19.6716 174 20.5 174Z" fill="white" fill-opacity="0.2"/>
<path d="M20.5 155C21.3284 155 22 155.672 22 156.5C22 157.328 21.3284 158 20.5 158C19.6716 158 19 157.328 19 156.5C19 155.672 19.6716 155 20.5 155Z" fill="white" fill-opacity="0.2"/>
<path d="M20.5 136C21.3284 136 22 136.672 22 137.5C22 138.328 21.3284 139 20.5 139C19.6716 139 19 138.328 19 137.5C19 136.672 19.6716 136 20.5 136Z" fill="white" fill-opacity="0.2"/>
<path d="M20.5 117C21.3284 117 22 117.672 22 118.5C22 119.328 21.3284 120 20.5 120C19.6716 120 19 119.328 19 118.5C19 117.672 19.6716 117 20.5 117Z" fill="white" fill-opacity="0.2"/>
<path d="M20.5 98C21.3284 98 22 98.6716 22 99.5C22 100.328 21.3284 101 20.5 101C19.6716 101 19 100.328 19 99.5C19 98.6716 19.6716 98 20.5 98Z" fill="white" fill-opacity="0.2"/>
<path d="M20.5 79C21.3284 79 22 79.6716 22 80.5C22 81.3284 21.3284 82 20.5 82C19.6716 82 19 81.3284 19 80.5C19 79.6716 19.6716 79 20.5 79Z" fill="white" fill-opacity="0.2"/>
<path d="M20.5 60C21.3284 60 22 60.6716 22 61.5C22 62.3284 21.3284 63 20.5 63C19.6716 63 19 62.3284 19 61.5C19 60.6716 19.6716 60 20.5 60Z" fill="white" fill-opacity="0.2"/>
<path d="M20.5 41C21.3284 41 22 41.6716 22 42.5C22 43.3284 21.3284 44 20.5 44C19.6716 44 19 43.3284 19 42.5C19 41.6716 19.6716 41 20.5 41Z" fill="white" fill-opacity="0.2"/>
<path d="M20.5 22C21.3284 22 22 22.6716 22 23.5C22 24.3284 21.3284 25 20.5 25C19.6716 25 19 24.3284 19 23.5C19 22.6716 19.6716 22 20.5 22Z" fill="white" fill-opacity="0.2"/>
<path d="M20.5 3C21.3284 3 22 3.67157 22 4.5C22 5.32843 21.3284 6 20.5 6C19.6716 6 19 5.32843 19 4.5C19 3.67157 19.6716 3 20.5 3Z" fill="white" fill-opacity="0.2"/>
<path d="M20.5 -16C21.3284 -16 22 -15.3284 22 -14.5C22 -13.6716 21.3284 -13 20.5 -13C19.6716 -13 19 -13.6716 19 -14.5C19 -15.3284 19.6716 -16 20.5 -16Z" fill="white" fill-opacity="0.2"/>
<path d="M20.5 -35C21.3284 -35 22 -34.3284 22 -33.5C22 -32.6716 21.3284 -32 20.5 -32C19.6716 -32 19 -32.6716 19 -33.5C19 -34.3284 19.6716 -35 20.5 -35Z" fill="white" fill-opacity="0.2"/>
<path d="M39.5 288C40.3284 288 41 288.672 41 289.5C41 290.328 40.3284 291 39.5 291C38.6716 291 38 290.328 38 289.5C38 288.672 38.6716 288 39.5 288Z" fill="white" fill-opacity="0.2"/>
<path d="M39.5 269C40.3284 269 41 269.672 41 270.5C41 271.328 40.3284 272 39.5 272C38.6716 272 38 271.328 38 270.5C38 269.672 38.6716 269 39.5 269Z" fill="white" fill-opacity="0.2"/>
<path d="M39.5 250C40.3284 250 41 250.672 41 251.5C41 252.328 40.3284 253 39.5 253C38.6716 253 38 252.328 38 251.5C38 250.672 38.6716 250 39.5 250Z" fill="white" fill-opacity="0.2"/>
<path d="M39.5 231C40.3284 231 41 231.672 41 232.5C41 233.328 40.3284 234 39.5 234C38.6716 234 38 233.328 38 232.5C38 231.672 38.6716 231 39.5 231Z" fill="white" fill-opacity="0.2"/>
<path d="M39.5 212C40.3284 212 41 212.672 41 213.5C41 214.328 40.3284 215 39.5 215C38.6716 215 38 214.328 38 213.5C38 212.672 38.6716 212 39.5 212Z" fill="white" fill-opacity="0.2"/>
<path d="M39.5 193C40.3284 193 41 193.672 41 194.5C41 195.328 40.3284 196 39.5 196C38.6716 196 38 195.328 38 194.5C38 193.672 38.6716 193 39.5 193Z" fill="white" fill-opacity="0.2"/>
<path d="M39.5 174C40.3284 174 41 174.672 41 175.5C41 176.328 40.3284 177 39.5 177C38.6716 177 38 176.328 38 175.5C38 174.672 38.6716 174 39.5 174Z" fill="white" fill-opacity="0.2"/>
<path d="M39.5 155C40.3284 155 41 155.672 41 156.5C41 157.328 40.3284 158 39.5 158C38.6716 158 38 157.328 38 156.5C38 155.672 38.6716 155 39.5 155Z" fill="white" fill-opacity="0.2"/>
<path d="M39.5 136C40.3284 136 41 136.672 41 137.5C41 138.328 40.3284 139 39.5 139C38.6716 139 38 138.328 38 137.5C38 136.672 38.6716 136 39.5 136Z" fill="white" fill-opacity="0.2"/>
<path d="M39.5 117C40.3284 117 41 117.672 41 118.5C41 119.328 40.3284 120 39.5 120C38.6716 120 38 119.328 38 118.5C38 117.672 38.6716 117 39.5 117Z" fill="white" fill-opacity="0.2"/>
<path d="M39.5 98C40.3284 98 41 98.6716 41 99.5C41 100.328 40.3284 101 39.5 101C38.6716 101 38 100.328 38 99.5C38 98.6716 38.6716 98 39.5 98Z" fill="white" fill-opacity="0.2"/>
<path d="M39.5 79C40.3284 79 41 79.6716 41 80.5C41 81.3284 40.3284 82 39.5 82C38.6716 82 38 81.3284 38 80.5C38 79.6716 38.6716 79 39.5 79Z" fill="white" fill-opacity="0.2"/>
<path d="M39.5 60C40.3284 60 41 60.6716 41 61.5C41 62.3284 40.3284 63 39.5 63C38.6716 63 38 62.3284 38 61.5C38 60.6716 38.6716 60 39.5 60Z" fill="white" fill-opacity="0.2"/>
<path d="M39.5 41C40.3284 41 41 41.6716 41 42.5C41 43.3284 40.3284 44 39.5 44C38.6716 44 38 43.3284 38 42.5C38 41.6716 38.6716 41 39.5 41Z" fill="white" fill-opacity="0.2"/>
<path d="M39.5 22C40.3284 22 41 22.6716 41 23.5C41 24.3284 40.3284 25 39.5 25C38.6716 25 38 24.3284 38 23.5C38 22.6716 38.6716 22 39.5 22Z" fill="white" fill-opacity="0.2"/>
<path d="M39.5 3C40.3284 3 41 3.67157 41 4.5C41 5.32843 40.3284 6 39.5 6C38.6716 6 38 5.32843 38 4.5C38 3.67157 38.6716 3 39.5 3Z" fill="white" fill-opacity="0.2"/>
<path d="M39.5 -16C40.3284 -16 41 -15.3284 41 -14.5C41 -13.6716 40.3284 -13 39.5 -13C38.6716 -13 38 -13.6716 38 -14.5C38 -15.3284 38.6716 -16 39.5 -16Z" fill="white" fill-opacity="0.2"/>
<path d="M39.5 -35C40.3284 -35 41 -34.3284 41 -33.5C41 -32.6716 40.3284 -32 39.5 -32C38.6716 -32 38 -32.6716 38 -33.5C38 -34.3284 38.6716 -35 39.5 -35Z" fill="white" fill-opacity="0.2"/>
<path d="M58.5 288C59.3284 288 60 288.672 60 289.5C60 290.328 59.3284 291 58.5 291C57.6716 291 57 290.328 57 289.5C57 288.672 57.6716 288 58.5 288Z" fill="white" fill-opacity="0.2"/>
<path d="M58.5 269C59.3284 269 60 269.672 60 270.5C60 271.328 59.3284 272 58.5 272C57.6716 272 57 271.328 57 270.5C57 269.672 57.6716 269 58.5 269Z" fill="white" fill-opacity="0.2"/>
<path d="M58.5 250C59.3284 250 60 250.672 60 251.5C60 252.328 59.3284 253 58.5 253C57.6716 253 57 252.328 57 251.5C57 250.672 57.6716 250 58.5 250Z" fill="white" fill-opacity="0.2"/>
<path d="M58.5 231C59.3284 231 60 231.672 60 232.5C60 233.328 59.3284 234 58.5 234C57.6716 234 57 233.328 57 232.5C57 231.672 57.6716 231 58.5 231Z" fill="white" fill-opacity="0.2"/>
<path d="M58.5 212C59.3284 212 60 212.672 60 213.5C60 214.328 59.3284 215 58.5 215C57.6716 215 57 214.328 57 213.5C57 212.672 57.6716 212 58.5 212Z" fill="white" fill-opacity="0.2"/>
<path d="M58.5 193C59.3284 193 60 193.672 60 194.5C60 195.328 59.3284 196 58.5 196C57.6716 196 57 195.328 57 194.5C57 193.672 57.6716 193 58.5 193Z" fill="white" fill-opacity="0.2"/>
<path d="M58.5 174C59.3284 174 60 174.672 60 175.5C60 176.328 59.3284 177 58.5 177C57.6716 177 57 176.328 57 175.5C57 174.672 57.6716 174 58.5 174Z" fill="white" fill-opacity="0.2"/>
<path d="M58.5 155C59.3284 155 60 155.672 60 156.5C60 157.328 59.3284 158 58.5 158C57.6716 158 57 157.328 57 156.5C57 155.672 57.6716 155 58.5 155Z" fill="white" fill-opacity="0.2"/>
<path d="M58.5 136C59.3284 136 60 136.672 60 137.5C60 138.328 59.3284 139 58.5 139C57.6716 139 57 138.328 57 137.5C57 136.672 57.6716 136 58.5 136Z" fill="white" fill-opacity="0.2"/>
<path d="M58.5 117C59.3284 117 60 117.672 60 118.5C60 119.328 59.3284 120 58.5 120C57.6716 120 57 119.328 57 118.5C57 117.672 57.6716 117 58.5 117Z" fill="white" fill-opacity="0.2"/>
<path d="M58.5 98C59.3284 98 60 98.6716 60 99.5C60 100.328 59.3284 101 58.5 101C57.6716 101 57 100.328 57 99.5C57 98.6716 57.6716 98 58.5 98Z" fill="white" fill-opacity="0.2"/>
<path d="M58.5 79C59.3284 79 60 79.6716 60 80.5C60 81.3284 59.3284 82 58.5 82C57.6716 82 57 81.3284 57 80.5C57 79.6716 57.6716 79 58.5 79Z" fill="white" fill-opacity="0.2"/>
<path d="M58.5 60C59.3284 60 60 60.6716 60 61.5C60 62.3284 59.3284 63 58.5 63C57.6716 63 57 62.3284 57 61.5C57 60.6716 57.6716 60 58.5 60Z" fill="white" fill-opacity="0.2"/>
<path d="M58.5 41C59.3284 41 60 41.6716 60 42.5C60 43.3284 59.3284 44 58.5 44C57.6716 44 57 43.3284 57 42.5C57 41.6716 57.6716 41 58.5 41Z" fill="white" fill-opacity="0.2"/>
<path d="M58.5 22C59.3284 22 60 22.6716 60 23.5C60 24.3284 59.3284 25 58.5 25C57.6716 25 57 24.3284 57 23.5C57 22.6716 57.6716 22 58.5 22Z" fill="white" fill-opacity="0.2"/>
<path d="M58.5 3C59.3284 3 60 3.67157 60 4.5C60 5.32843 59.3284 6 58.5 6C57.6716 6 57 5.32843 57 4.5C57 3.67157 57.6716 3 58.5 3Z" fill="white" fill-opacity="0.2"/>
<path d="M58.5 -16C59.3284 -16 60 -15.3284 60 -14.5C60 -13.6716 59.3284 -13 58.5 -13C57.6716 -13 57 -13.6716 57 -14.5C57 -15.3284 57.6716 -16 58.5 -16Z" fill="white" fill-opacity="0.2"/>
<path d="M58.5 -35C59.3284 -35 60 -34.3284 60 -33.5C60 -32.6716 59.3284 -32 58.5 -32C57.6716 -32 57 -32.6716 57 -33.5C57 -34.3284 57.6716 -35 58.5 -35Z" fill="white" fill-opacity="0.2"/>
<path d="M77.5 288C78.3284 288 79 288.672 79 289.5C79 290.328 78.3284 291 77.5 291C76.6716 291 76 290.328 76 289.5C76 288.672 76.6716 288 77.5 288Z" fill="white" fill-opacity="0.2"/>
<path d="M77.5 269C78.3284 269 79 269.672 79 270.5C79 271.328 78.3284 272 77.5 272C76.6716 272 76 271.328 76 270.5C76 269.672 76.6716 269 77.5 269Z" fill="white" fill-opacity="0.2"/>
<path d="M77.5 250C78.3284 250 79 250.672 79 251.5C79 252.328 78.3284 253 77.5 253C76.6716 253 76 252.328 76 251.5C76 250.672 76.6716 250 77.5 250Z" fill="white" fill-opacity="0.2"/>
<path d="M77.5 231C78.3284 231 79 231.672 79 232.5C79 233.328 78.3284 234 77.5 234C76.6716 234 76 233.328 76 232.5C76 231.672 76.6716 231 77.5 231Z" fill="white" fill-opacity="0.2"/>
<path d="M77.5 212C78.3284 212 79 212.672 79 213.5C79 214.328 78.3284 215 77.5 215C76.6716 215 76 214.328 76 213.5C76 212.672 76.6716 212 77.5 212Z" fill="white" fill-opacity="0.2"/>
<path d="M77.5 193C78.3284 193 79 193.672 79 194.5C79 195.328 78.3284 196 77.5 196C76.6716 196 76 195.328 76 194.5C76 193.672 76.6716 193 77.5 193Z" fill="white" fill-opacity="0.2"/>
<path d="M77.5 174C78.3284 174 79 174.672 79 175.5C79 176.328 78.3284 177 77.5 177C76.6716 177 76 176.328 76 175.5C76 174.672 76.6716 174 77.5 174Z" fill="white" fill-opacity="0.2"/>
<path d="M77.5 155C78.3284 155 79 155.672 79 156.5C79 157.328 78.3284 158 77.5 158C76.6716 158 76 157.328 76 156.5C76 155.672 76.6716 155 77.5 155Z" fill="white" fill-opacity="0.2"/>
<path d="M77.5 136C78.3284 136 79 136.672 79 137.5C79 138.328 78.3284 139 77.5 139C76.6716 139 76 138.328 76 137.5C76 136.672 76.6716 136 77.5 136Z" fill="white" fill-opacity="0.2"/>
<path d="M77.5 117C78.3284 117 79 117.672 79 118.5C79 119.328 78.3284 120 77.5 120C76.6716 120 76 119.328 76 118.5C76 117.672 76.6716 117 77.5 117Z" fill="white" fill-opacity="0.2"/>
<path d="M77.5 98C78.3284 98 79 98.6716 79 99.5C79 100.328 78.3284 101 77.5 101C76.6716 101 76 100.328 76 99.5C76 98.6716 76.6716 98 77.5 98Z" fill="white" fill-opacity="0.2"/>
<path d="M77.5 79C78.3284 79 79 79.6716 79 80.5C79 81.3284 78.3284 82 77.5 82C76.6716 82 76 81.3284 76 80.5C76 79.6716 76.6716 79 77.5 79Z" fill="white" fill-opacity="0.2"/>
<path d="M77.5 60C78.3284 60 79 60.6716 79 61.5C79 62.3284 78.3284 63 77.5 63C76.6716 63 76 62.3284 76 61.5C76 60.6716 76.6716 60 77.5 60Z" fill="white" fill-opacity="0.2"/>
<path d="M77.5 41C78.3284 41 79 41.6716 79 42.5C79 43.3284 78.3284 44 77.5 44C76.6716 44 76 43.3284 76 42.5C76 41.6716 76.6716 41 77.5 41Z" fill="white" fill-opacity="0.2"/>
<path d="M77.5 22C78.3284 22 79 22.6716 79 23.5C79 24.3284 78.3284 25 77.5 25C76.6716 25 76 24.3284 76 23.5C76 22.6716 76.6716 22 77.5 22Z" fill="white" fill-opacity="0.2"/>
<path d="M77.5 3C78.3284 3 79 3.67157 79 4.5C79 5.32843 78.3284 6 77.5 6C76.6716 6 76 5.32843 76 4.5C76 3.67157 76.6716 3 77.5 3Z" fill="white" fill-opacity="0.2"/>
<path d="M77.5 -16C78.3284 -16 79 -15.3284 79 -14.5C79 -13.6716 78.3284 -13 77.5 -13C76.6716 -13 76 -13.6716 76 -14.5C76 -15.3284 76.6716 -16 77.5 -16Z" fill="white" fill-opacity="0.2"/>
<path d="M77.5 -35C78.3284 -35 79 -34.3284 79 -33.5C79 -32.6716 78.3284 -32 77.5 -32C76.6716 -32 76 -32.6716 76 -33.5C76 -34.3284 76.6716 -35 77.5 -35Z" fill="white" fill-opacity="0.2"/>
<path d="M96.5 288C97.3284 288 98 288.672 98 289.5C98 290.328 97.3284 291 96.5 291C95.6716 291 95 290.328 95 289.5C95 288.672 95.6716 288 96.5 288Z" fill="white" fill-opacity="0.2"/>
<path d="M96.5 269C97.3284 269 98 269.672 98 270.5C98 271.328 97.3284 272 96.5 272C95.6716 272 95 271.328 95 270.5C95 269.672 95.6716 269 96.5 269Z" fill="white" fill-opacity="0.2"/>
<path d="M96.5 250C97.3284 250 98 250.672 98 251.5C98 252.328 97.3284 253 96.5 253C95.6716 253 95 252.328 95 251.5C95 250.672 95.6716 250 96.5 250Z" fill="white" fill-opacity="0.2"/>
<path d="M96.5 231C97.3284 231 98 231.672 98 232.5C98 233.328 97.3284 234 96.5 234C95.6716 234 95 233.328 95 232.5C95 231.672 95.6716 231 96.5 231Z" fill="white" fill-opacity="0.2"/>
<path d="M96.5 212C97.3284 212 98 212.672 98 213.5C98 214.328 97.3284 215 96.5 215C95.6716 215 95 214.328 95 213.5C95 212.672 95.6716 212 96.5 212Z" fill="white" fill-opacity="0.2"/>
<path d="M96.5 193C97.3284 193 98 193.672 98 194.5C98 195.328 97.3284 196 96.5 196C95.6716 196 95 195.328 95 194.5C95 193.672 95.6716 193 96.5 193Z" fill="white" fill-opacity="0.2"/>
<path d="M96.5 174C97.3284 174 98 174.672 98 175.5C98 176.328 97.3284 177 96.5 177C95.6716 177 95 176.328 95 175.5C95 174.672 95.6716 174 96.5 174Z" fill="white" fill-opacity="0.2"/>
<path d="M96.5 155C97.3284 155 98 155.672 98 156.5C98 157.328 97.3284 158 96.5 158C95.6716 158 95 157.328 95 156.5C95 155.672 95.6716 155 96.5 155Z" fill="white" fill-opacity="0.2"/>
<path d="M96.5 136C97.3284 136 98 136.672 98 137.5C98 138.328 97.3284 139 96.5 139C95.6716 139 95 138.328 95 137.5C95 136.672 95.6716 136 96.5 136Z" fill="white" fill-opacity="0.2"/>
<path d="M96.5 117C97.3284 117 98 117.672 98 118.5C98 119.328 97.3284 120 96.5 120C95.6716 120 95 119.328 95 118.5C95 117.672 95.6716 117 96.5 117Z" fill="white" fill-opacity="0.2"/>
<path d="M96.5 98C97.3284 98 98 98.6716 98 99.5C98 100.328 97.3284 101 96.5 101C95.6716 101 95 100.328 95 99.5C95 98.6716 95.6716 98 96.5 98Z" fill="white" fill-opacity="0.2"/>
<path d="M96.5 79C97.3284 79 98 79.6716 98 80.5C98 81.3284 97.3284 82 96.5 82C95.6716 82 95 81.3284 95 80.5C95 79.6716 95.6716 79 96.5 79Z" fill="white" fill-opacity="0.2"/>
<path d="M96.5 60C97.3284 60 98 60.6716 98 61.5C98 62.3284 97.3284 63 96.5 63C95.6716 63 95 62.3284 95 61.5C95 60.6716 95.6716 60 96.5 60Z" fill="white" fill-opacity="0.2"/>
<path d="M96.5 41C97.3284 41 98 41.6716 98 42.5C98 43.3284 97.3284 44 96.5 44C95.6716 44 95 43.3284 95 42.5C95 41.6716 95.6716 41 96.5 41Z" fill="white" fill-opacity="0.2"/>
<path d="M96.5 22C97.3284 22 98 22.6716 98 23.5C98 24.3284 97.3284 25 96.5 25C95.6716 25 95 24.3284 95 23.5C95 22.6716 95.6716 22 96.5 22Z" fill="white" fill-opacity="0.2"/>
<path d="M96.5 3C97.3284 3 98 3.67157 98 4.5C98 5.32843 97.3284 6 96.5 6C95.6716 6 95 5.32843 95 4.5C95 3.67157 95.6716 3 96.5 3Z" fill="white" fill-opacity="0.2"/>
<path d="M96.5 -16C97.3284 -16 98 -15.3284 98 -14.5C98 -13.6716 97.3284 -13 96.5 -13C95.6716 -13 95 -13.6716 95 -14.5C95 -15.3284 95.6716 -16 96.5 -16Z" fill="white" fill-opacity="0.2"/>
<path d="M96.5 -35C97.3284 -35 98 -34.3284 98 -33.5C98 -32.6716 97.3284 -32 96.5 -32C95.6716 -32 95 -32.6716 95 -33.5C95 -34.3284 95.6716 -35 96.5 -35Z" fill="white" fill-opacity="0.2"/>
<path d="M115.5 288C116.328 288 117 288.672 117 289.5C117 290.328 116.328 291 115.5 291C114.672 291 114 290.328 114 289.5C114 288.672 114.672 288 115.5 288Z" fill="white" fill-opacity="0.2"/>
<path d="M115.5 269C116.328 269 117 269.672 117 270.5C117 271.328 116.328 272 115.5 272C114.672 272 114 271.328 114 270.5C114 269.672 114.672 269 115.5 269Z" fill="white" fill-opacity="0.2"/>
<path d="M115.5 250C116.328 250 117 250.672 117 251.5C117 252.328 116.328 253 115.5 253C114.672 253 114 252.328 114 251.5C114 250.672 114.672 250 115.5 250Z" fill="white" fill-opacity="0.2"/>
<path d="M115.5 231C116.328 231 117 231.672 117 232.5C117 233.328 116.328 234 115.5 234C114.672 234 114 233.328 114 232.5C114 231.672 114.672 231 115.5 231Z" fill="white" fill-opacity="0.2"/>
<path d="M115.5 212C116.328 212 117 212.672 117 213.5C117 214.328 116.328 215 115.5 215C114.672 215 114 214.328 114 213.5C114 212.672 114.672 212 115.5 212Z" fill="white" fill-opacity="0.2"/>
<path d="M115.5 193C116.328 193 117 193.672 117 194.5C117 195.328 116.328 196 115.5 196C114.672 196 114 195.328 114 194.5C114 193.672 114.672 193 115.5 193Z" fill="white" fill-opacity="0.2"/>
<path d="M115.5 174C116.328 174 117 174.672 117 175.5C117 176.328 116.328 177 115.5 177C114.672 177 114 176.328 114 175.5C114 174.672 114.672 174 115.5 174Z" fill="white" fill-opacity="0.2"/>
<path d="M115.5 155C116.328 155 117 155.672 117 156.5C117 157.328 116.328 158 115.5 158C114.672 158 114 157.328 114 156.5C114 155.672 114.672 155 115.5 155Z" fill="white" fill-opacity="0.2"/>
<path d="M115.5 136C116.328 136 117 136.672 117 137.5C117 138.328 116.328 139 115.5 139C114.672 139 114 138.328 114 137.5C114 136.672 114.672 136 115.5 136Z" fill="white" fill-opacity="0.2"/>
<path d="M115.5 117C116.328 117 117 117.672 117 118.5C117 119.328 116.328 120 115.5 120C114.672 120 114 119.328 114 118.5C114 117.672 114.672 117 115.5 117Z" fill="white" fill-opacity="0.2"/>
<path d="M115.5 98C116.328 98 117 98.6716 117 99.5C117 100.328 116.328 101 115.5 101C114.672 101 114 100.328 114 99.5C114 98.6716 114.672 98 115.5 98Z" fill="white" fill-opacity="0.2"/>
<path d="M115.5 79C116.328 79 117 79.6716 117 80.5C117 81.3284 116.328 82 115.5 82C114.672 82 114 81.3284 114 80.5C114 79.6716 114.672 79 115.5 79Z" fill="white" fill-opacity="0.2"/>
<path d="M115.5 60C116.328 60 117 60.6716 117 61.5C117 62.3284 116.328 63 115.5 63C114.672 63 114 62.3284 114 61.5C114 60.6716 114.672 60 115.5 60Z" fill="white" fill-opacity="0.2"/>
<path d="M115.5 41C116.328 41 117 41.6716 117 42.5C117 43.3284 116.328 44 115.5 44C114.672 44 114 43.3284 114 42.5C114 41.6716 114.672 41 115.5 41Z" fill="white" fill-opacity="0.2"/>
<path d="M115.5 22C116.328 22 117 22.6716 117 23.5C117 24.3284 116.328 25 115.5 25C114.672 25 114 24.3284 114 23.5C114 22.6716 114.672 22 115.5 22Z" fill="white" fill-opacity="0.2"/>
<path d="M115.5 3C116.328 3 117 3.67157 117 4.5C117 5.32843 116.328 6 115.5 6C114.672 6 114 5.32843 114 4.5C114 3.67157 114.672 3 115.5 3Z" fill="white" fill-opacity="0.2"/>
<path d="M115.5 -16C116.328 -16 117 -15.3284 117 -14.5C117 -13.6716 116.328 -13 115.5 -13C114.672 -13 114 -13.6716 114 -14.5C114 -15.3284 114.672 -16 115.5 -16Z" fill="white" fill-opacity="0.2"/>
<path d="M115.5 -35C116.328 -35 117 -34.3284 117 -33.5C117 -32.6716 116.328 -32 115.5 -32C114.672 -32 114 -32.6716 114 -33.5C114 -34.3284 114.672 -35 115.5 -35Z" fill="white" fill-opacity="0.2"/>
<path d="M134.5 288C135.328 288 136 288.672 136 289.5C136 290.328 135.328 291 134.5 291C133.672 291 133 290.328 133 289.5C133 288.672 133.672 288 134.5 288Z" fill="white" fill-opacity="0.2"/>
<path d="M134.5 269C135.328 269 136 269.672 136 270.5C136 271.328 135.328 272 134.5 272C133.672 272 133 271.328 133 270.5C133 269.672 133.672 269 134.5 269Z" fill="white" fill-opacity="0.2"/>
<path d="M134.5 250C135.328 250 136 250.672 136 251.5C136 252.328 135.328 253 134.5 253C133.672 253 133 252.328 133 251.5C133 250.672 133.672 250 134.5 250Z" fill="white" fill-opacity="0.2"/>
<path d="M134.5 231C135.328 231 136 231.672 136 232.5C136 233.328 135.328 234 134.5 234C133.672 234 133 233.328 133 232.5C133 231.672 133.672 231 134.5 231Z" fill="white" fill-opacity="0.2"/>
<path d="M134.5 212C135.328 212 136 212.672 136 213.5C136 214.328 135.328 215 134.5 215C133.672 215 133 214.328 133 213.5C133 212.672 133.672 212 134.5 212Z" fill="white" fill-opacity="0.2"/>
<path d="M134.5 193C135.328 193 136 193.672 136 194.5C136 195.328 135.328 196 134.5 196C133.672 196 133 195.328 133 194.5C133 193.672 133.672 193 134.5 193Z" fill="white" fill-opacity="0.2"/>
<path d="M134.5 174C135.328 174 136 174.672 136 175.5C136 176.328 135.328 177 134.5 177C133.672 177 133 176.328 133 175.5C133 174.672 133.672 174 134.5 174Z" fill="white" fill-opacity="0.2"/>
<path d="M134.5 155C135.328 155 136 155.672 136 156.5C136 157.328 135.328 158 134.5 158C133.672 158 133 157.328 133 156.5C133 155.672 133.672 155 134.5 155Z" fill="white" fill-opacity="0.2"/>
<path d="M134.5 136C135.328 136 136 136.672 136 137.5C136 138.328 135.328 139 134.5 139C133.672 139 133 138.328 133 137.5C133 136.672 133.672 136 134.5 136Z" fill="white" fill-opacity="0.2"/>
<path d="M134.5 117C135.328 117 136 117.672 136 118.5C136 119.328 135.328 120 134.5 120C133.672 120 133 119.328 133 118.5C133 117.672 133.672 117 134.5 117Z" fill="white" fill-opacity="0.2"/>
<path d="M134.5 98C135.328 98 136 98.6716 136 99.5C136 100.328 135.328 101 134.5 101C133.672 101 133 100.328 133 99.5C133 98.6716 133.672 98 134.5 98Z" fill="white" fill-opacity="0.2"/>
<path d="M134.5 79C135.328 79 136 79.6716 136 80.5C136 81.3284 135.328 82 134.5 82C133.672 82 133 81.3284 133 80.5C133 79.6716 133.672 79 134.5 79Z" fill="white" fill-opacity="0.2"/>
<path d="M134.5 60C135.328 60 136 60.6716 136 61.5C136 62.3284 135.328 63 134.5 63C133.672 63 133 62.3284 133 61.5C133 60.6716 133.672 60 134.5 60Z" fill="white" fill-opacity="0.2"/>
<path d="M134.5 41C135.328 41 136 41.6716 136 42.5C136 43.3284 135.328 44 134.5 44C133.672 44 133 43.3284 133 42.5C133 41.6716 133.672 41 134.5 41Z" fill="white" fill-opacity="0.2"/>
<path d="M134.5 22C135.328 22 136 22.6716 136 23.5C136 24.3284 135.328 25 134.5 25C133.672 25 133 24.3284 133 23.5C133 22.6716 133.672 22 134.5 22Z" fill="white" fill-opacity="0.2"/>
<path d="M134.5 3C135.328 3 136 3.67157 136 4.5C136 5.32843 135.328 6 134.5 6C133.672 6 133 5.32843 133 4.5C133 3.67157 133.672 3 134.5 3Z" fill="white" fill-opacity="0.2"/>
<path d="M134.5 -16C135.328 -16 136 -15.3284 136 -14.5C136 -13.6716 135.328 -13 134.5 -13C133.672 -13 133 -13.6716 133 -14.5C133 -15.3284 133.672 -16 134.5 -16Z" fill="white" fill-opacity="0.2"/>
<path d="M134.5 -35C135.328 -35 136 -34.3284 136 -33.5C136 -32.6716 135.328 -32 134.5 -32C133.672 -32 133 -32.6716 133 -33.5C133 -34.3284 133.672 -35 134.5 -35Z" fill="white" fill-opacity="0.2"/>
<path d="M153.5 288C154.328 288 155 288.672 155 289.5C155 290.328 154.328 291 153.5 291C152.672 291 152 290.328 152 289.5C152 288.672 152.672 288 153.5 288Z" fill="white" fill-opacity="0.2"/>
<path d="M153.5 269C154.328 269 155 269.672 155 270.5C155 271.328 154.328 272 153.5 272C152.672 272 152 271.328 152 270.5C152 269.672 152.672 269 153.5 269Z" fill="white" fill-opacity="0.2"/>
<path d="M153.5 250C154.328 250 155 250.672 155 251.5C155 252.328 154.328 253 153.5 253C152.672 253 152 252.328 152 251.5C152 250.672 152.672 250 153.5 250Z" fill="white" fill-opacity="0.2"/>
<path d="M153.5 231C154.328 231 155 231.672 155 232.5C155 233.328 154.328 234 153.5 234C152.672 234 152 233.328 152 232.5C152 231.672 152.672 231 153.5 231Z" fill="white" fill-opacity="0.2"/>
<path d="M153.5 212C154.328 212 155 212.672 155 213.5C155 214.328 154.328 215 153.5 215C152.672 215 152 214.328 152 213.5C152 212.672 152.672 212 153.5 212Z" fill="white" fill-opacity="0.2"/>
<path d="M153.5 193C154.328 193 155 193.672 155 194.5C155 195.328 154.328 196 153.5 196C152.672 196 152 195.328 152 194.5C152 193.672 152.672 193 153.5 193Z" fill="white" fill-opacity="0.2"/>
<path d="M153.5 174C154.328 174 155 174.672 155 175.5C155 176.328 154.328 177 153.5 177C152.672 177 152 176.328 152 175.5C152 174.672 152.672 174 153.5 174Z" fill="white" fill-opacity="0.2"/>
<path d="M153.5 155C154.328 155 155 155.672 155 156.5C155 157.328 154.328 158 153.5 158C152.672 158 152 157.328 152 156.5C152 155.672 152.672 155 153.5 155Z" fill="white" fill-opacity="0.2"/>
<path d="M153.5 136C154.328 136 155 136.672 155 137.5C155 138.328 154.328 139 153.5 139C152.672 139 152 138.328 152 137.5C152 136.672 152.672 136 153.5 136Z" fill="white" fill-opacity="0.2"/>
<path d="M153.5 117C154.328 117 155 117.672 155 118.5C155 119.328 154.328 120 153.5 120C152.672 120 152 119.328 152 118.5C152 117.672 152.672 117 153.5 117Z" fill="white" fill-opacity="0.2"/>
<path d="M153.5 98C154.328 98 155 98.6716 155 99.5C155 100.328 154.328 101 153.5 101C152.672 101 152 100.328 152 99.5C152 98.6716 152.672 98 153.5 98Z" fill="white" fill-opacity="0.2"/>
<path d="M153.5 79C154.328 79 155 79.6716 155 80.5C155 81.3284 154.328 82 153.5 82C152.672 82 152 81.3284 152 80.5C152 79.6716 152.672 79 153.5 79Z" fill="white" fill-opacity="0.2"/>
<path d="M153.5 60C154.328 60 155 60.6716 155 61.5C155 62.3284 154.328 63 153.5 63C152.672 63 152 62.3284 152 61.5C152 60.6716 152.672 60 153.5 60Z" fill="white" fill-opacity="0.2"/>
<path d="M153.5 41C154.328 41 155 41.6716 155 42.5C155 43.3284 154.328 44 153.5 44C152.672 44 152 43.3284 152 42.5C152 41.6716 152.672 41 153.5 41Z" fill="white" fill-opacity="0.2"/>
<path d="M153.5 22C154.328 22 155 22.6716 155 23.5C155 24.3284 154.328 25 153.5 25C152.672 25 152 24.3284 152 23.5C152 22.6716 152.672 22 153.5 22Z" fill="white" fill-opacity="0.2"/>
<path d="M153.5 3C154.328 3 155 3.67157 155 4.5C155 5.32843 154.328 6 153.5 6C152.672 6 152 5.32843 152 4.5C152 3.67157 152.672 3 153.5 3Z" fill="white" fill-opacity="0.2"/>
<path d="M153.5 -16C154.328 -16 155 -15.3284 155 -14.5C155 -13.6716 154.328 -13 153.5 -13C152.672 -13 152 -13.6716 152 -14.5C152 -15.3284 152.672 -16 153.5 -16Z" fill="white" fill-opacity="0.2"/>
<path d="M153.5 -35C154.328 -35 155 -34.3284 155 -33.5C155 -32.6716 154.328 -32 153.5 -32C152.672 -32 152 -32.6716 152 -33.5C152 -34.3284 152.672 -35 153.5 -35Z" fill="white" fill-opacity="0.2"/>
<path d="M172.5 288C173.328 288 174 288.672 174 289.5C174 290.328 173.328 291 172.5 291C171.672 291 171 290.328 171 289.5C171 288.672 171.672 288 172.5 288Z" fill="white" fill-opacity="0.2"/>
<path d="M172.5 269C173.328 269 174 269.672 174 270.5C174 271.328 173.328 272 172.5 272C171.672 272 171 271.328 171 270.5C171 269.672 171.672 269 172.5 269Z" fill="white" fill-opacity="0.2"/>
<path d="M172.5 250C173.328 250 174 250.672 174 251.5C174 252.328 173.328 253 172.5 253C171.672 253 171 252.328 171 251.5C171 250.672 171.672 250 172.5 250Z" fill="white" fill-opacity="0.2"/>
<path d="M172.5 231C173.328 231 174 231.672 174 232.5C174 233.328 173.328 234 172.5 234C171.672 234 171 233.328 171 232.5C171 231.672 171.672 231 172.5 231Z" fill="white" fill-opacity="0.2"/>
<path d="M172.5 212C173.328 212 174 212.672 174 213.5C174 214.328 173.328 215 172.5 215C171.672 215 171 214.328 171 213.5C171 212.672 171.672 212 172.5 212Z" fill="white" fill-opacity="0.2"/>
<path d="M172.5 193C173.328 193 174 193.672 174 194.5C174 195.328 173.328 196 172.5 196C171.672 196 171 195.328 171 194.5C171 193.672 171.672 193 172.5 193Z" fill="white" fill-opacity="0.2"/>
<path d="M172.5 174C173.328 174 174 174.672 174 175.5C174 176.328 173.328 177 172.5 177C171.672 177 171 176.328 171 175.5C171 174.672 171.672 174 172.5 174Z" fill="white" fill-opacity="0.2"/>
<path d="M172.5 155C173.328 155 174 155.672 174 156.5C174 157.328 173.328 158 172.5 158C171.672 158 171 157.328 171 156.5C171 155.672 171.672 155 172.5 155Z" fill="white" fill-opacity="0.2"/>
<path d="M172.5 136C173.328 136 174 136.672 174 137.5C174 138.328 173.328 139 172.5 139C171.672 139 171 138.328 171 137.5C171 136.672 171.672 136 172.5 136Z" fill="white" fill-opacity="0.2"/>
<path d="M172.5 117C173.328 117 174 117.672 174 118.5C174 119.328 173.328 120 172.5 120C171.672 120 171 119.328 171 118.5C171 117.672 171.672 117 172.5 117Z" fill="white" fill-opacity="0.2"/>
<path d="M172.5 98C173.328 98 174 98.6716 174 99.5C174 100.328 173.328 101 172.5 101C171.672 101 171 100.328 171 99.5C171 98.6716 171.672 98 172.5 98Z" fill="white" fill-opacity="0.2"/>
<path d="M172.5 79C173.328 79 174 79.6716 174 80.5C174 81.3284 173.328 82 172.5 82C171.672 82 171 81.3284 171 80.5C171 79.6716 171.672 79 172.5 79Z" fill="white" fill-opacity="0.2"/>
<path d="M172.5 60C173.328 60 174 60.6716 174 61.5C174 62.3284 173.328 63 172.5 63C171.672 63 171 62.3284 171 61.5C171 60.6716 171.672 60 172.5 60Z" fill="white" fill-opacity="0.2"/>
<path d="M172.5 41C173.328 41 174 41.6716 174 42.5C174 43.3284 173.328 44 172.5 44C171.672 44 171 43.3284 171 42.5C171 41.6716 171.672 41 172.5 41Z" fill="white" fill-opacity="0.2"/>
<path d="M172.5 22C173.328 22 174 22.6716 174 23.5C174 24.3284 173.328 25 172.5 25C171.672 25 171 24.3284 171 23.5C171 22.6716 171.672 22 172.5 22Z" fill="white" fill-opacity="0.2"/>
<path d="M172.5 3C173.328 3 174 3.67157 174 4.5C174 5.32843 173.328 6 172.5 6C171.672 6 171 5.32843 171 4.5C171 3.67157 171.672 3 172.5 3Z" fill="white" fill-opacity="0.2"/>
<path d="M172.5 -16C173.328 -16 174 -15.3284 174 -14.5C174 -13.6716 173.328 -13 172.5 -13C171.672 -13 171 -13.6716 171 -14.5C171 -15.3284 171.672 -16 172.5 -16Z" fill="white" fill-opacity="0.2"/>
<path d="M172.5 -35C173.328 -35 174 -34.3284 174 -33.5C174 -32.6716 173.328 -32 172.5 -32C171.672 -32 171 -32.6716 171 -33.5C171 -34.3284 171.672 -35 172.5 -35Z" fill="white" fill-opacity="0.2"/>
<path d="M191.5 288C192.328 288 193 288.672 193 289.5C193 290.328 192.328 291 191.5 291C190.672 291 190 290.328 190 289.5C190 288.672 190.672 288 191.5 288Z" fill="white" fill-opacity="0.2"/>
<path d="M191.5 269C192.328 269 193 269.672 193 270.5C193 271.328 192.328 272 191.5 272C190.672 272 190 271.328 190 270.5C190 269.672 190.672 269 191.5 269Z" fill="white" fill-opacity="0.2"/>
<path d="M191.5 250C192.328 250 193 250.672 193 251.5C193 252.328 192.328 253 191.5 253C190.672 253 190 252.328 190 251.5C190 250.672 190.672 250 191.5 250Z" fill="white" fill-opacity="0.2"/>
<path d="M191.5 231C192.328 231 193 231.672 193 232.5C193 233.328 192.328 234 191.5 234C190.672 234 190 233.328 190 232.5C190 231.672 190.672 231 191.5 231Z" fill="white" fill-opacity="0.2"/>
<path d="M191.5 212C192.328 212 193 212.672 193 213.5C193 214.328 192.328 215 191.5 215C190.672 215 190 214.328 190 213.5C190 212.672 190.672 212 191.5 212Z" fill="white" fill-opacity="0.2"/>
<path d="M191.5 193C192.328 193 193 193.672 193 194.5C193 195.328 192.328 196 191.5 196C190.672 196 190 195.328 190 194.5C190 193.672 190.672 193 191.5 193Z" fill="white" fill-opacity="0.2"/>
<path d="M191.5 174C192.328 174 193 174.672 193 175.5C193 176.328 192.328 177 191.5 177C190.672 177 190 176.328 190 175.5C190 174.672 190.672 174 191.5 174Z" fill="white" fill-opacity="0.2"/>
<path d="M191.5 155C192.328 155 193 155.672 193 156.5C193 157.328 192.328 158 191.5 158C190.672 158 190 157.328 190 156.5C190 155.672 190.672 155 191.5 155Z" fill="white" fill-opacity="0.2"/>
<path d="M191.5 136C192.328 136 193 136.672 193 137.5C193 138.328 192.328 139 191.5 139C190.672 139 190 138.328 190 137.5C190 136.672 190.672 136 191.5 136Z" fill="white" fill-opacity="0.2"/>
<path d="M191.5 117C192.328 117 193 117.672 193 118.5C193 119.328 192.328 120 191.5 120C190.672 120 190 119.328 190 118.5C190 117.672 190.672 117 191.5 117Z" fill="white" fill-opacity="0.2"/>
<path d="M191.5 98C192.328 98 193 98.6716 193 99.5C193 100.328 192.328 101 191.5 101C190.672 101 190 100.328 190 99.5C190 98.6716 190.672 98 191.5 98Z" fill="white" fill-opacity="0.2"/>
<path d="M191.5 79C192.328 79 193 79.6716 193 80.5C193 81.3284 192.328 82 191.5 82C190.672 82 190 81.3284 190 80.5C190 79.6716 190.672 79 191.5 79Z" fill="white" fill-opacity="0.2"/>
<path d="M191.5 60C192.328 60 193 60.6716 193 61.5C193 62.3284 192.328 63 191.5 63C190.672 63 190 62.3284 190 61.5C190 60.6716 190.672 60 191.5 60Z" fill="white" fill-opacity="0.2"/>
<path d="M191.5 41C192.328 41 193 41.6716 193 42.5C193 43.3284 192.328 44 191.5 44C190.672 44 190 43.3284 190 42.5C190 41.6716 190.672 41 191.5 41Z" fill="white" fill-opacity="0.2"/>
<path d="M191.5 22C192.328 22 193 22.6716 193 23.5C193 24.3284 192.328 25 191.5 25C190.672 25 190 24.3284 190 23.5C190 22.6716 190.672 22 191.5 22Z" fill="white" fill-opacity="0.2"/>
<path d="M191.5 3C192.328 3 193 3.67157 193 4.5C193 5.32843 192.328 6 191.5 6C190.672 6 190 5.32843 190 4.5C190 3.67157 190.672 3 191.5 3Z" fill="white" fill-opacity="0.2"/>
<path d="M191.5 -16C192.328 -16 193 -15.3284 193 -14.5C193 -13.6716 192.328 -13 191.5 -13C190.672 -13 190 -13.6716 190 -14.5C190 -15.3284 190.672 -16 191.5 -16Z" fill="white" fill-opacity="0.2"/>
<path d="M191.5 -35C192.328 -35 193 -34.3284 193 -33.5C193 -32.6716 192.328 -32 191.5 -32C190.672 -32 190 -32.6716 190 -33.5C190 -34.3284 190.672 -35 191.5 -35Z" fill="white" fill-opacity="0.2"/>
<path d="M210.5 288C211.328 288 212 288.672 212 289.5C212 290.328 211.328 291 210.5 291C209.672 291 209 290.328 209 289.5C209 288.672 209.672 288 210.5 288Z" fill="white" fill-opacity="0.2"/>
<path d="M210.5 269C211.328 269 212 269.672 212 270.5C212 271.328 211.328 272 210.5 272C209.672 272 209 271.328 209 270.5C209 269.672 209.672 269 210.5 269Z" fill="white" fill-opacity="0.2"/>
<path d="M210.5 250C211.328 250 212 250.672 212 251.5C212 252.328 211.328 253 210.5 253C209.672 253 209 252.328 209 251.5C209 250.672 209.672 250 210.5 250Z" fill="white" fill-opacity="0.2"/>
<path d="M210.5 231C211.328 231 212 231.672 212 232.5C212 233.328 211.328 234 210.5 234C209.672 234 209 233.328 209 232.5C209 231.672 209.672 231 210.5 231Z" fill="white" fill-opacity="0.2"/>
<path d="M210.5 212C211.328 212 212 212.672 212 213.5C212 214.328 211.328 215 210.5 215C209.672 215 209 214.328 209 213.5C209 212.672 209.672 212 210.5 212Z" fill="white" fill-opacity="0.2"/>
<path d="M210.5 193C211.328 193 212 193.672 212 194.5C212 195.328 211.328 196 210.5 196C209.672 196 209 195.328 209 194.5C209 193.672 209.672 193 210.5 193Z" fill="white" fill-opacity="0.2"/>
<path d="M210.5 174C211.328 174 212 174.672 212 175.5C212 176.328 211.328 177 210.5 177C209.672 177 209 176.328 209 175.5C209 174.672 209.672 174 210.5 174Z" fill="white" fill-opacity="0.2"/>
<path d="M210.5 155C211.328 155 212 155.672 212 156.5C212 157.328 211.328 158 210.5 158C209.672 158 209 157.328 209 156.5C209 155.672 209.672 155 210.5 155Z" fill="white" fill-opacity="0.2"/>
<path d="M210.5 136C211.328 136 212 136.672 212 137.5C212 138.328 211.328 139 210.5 139C209.672 139 209 138.328 209 137.5C209 136.672 209.672 136 210.5 136Z" fill="white" fill-opacity="0.2"/>
<path d="M210.5 117C211.328 117 212 117.672 212 118.5C212 119.328 211.328 120 210.5 120C209.672 120 209 119.328 209 118.5C209 117.672 209.672 117 210.5 117Z" fill="white" fill-opacity="0.2"/>
<path d="M210.5 98C211.328 98 212 98.6716 212 99.5C212 100.328 211.328 101 210.5 101C209.672 101 209 100.328 209 99.5C209 98.6716 209.672 98 210.5 98Z" fill="white" fill-opacity="0.2"/>
<path d="M210.5 79C211.328 79 212 79.6716 212 80.5C212 81.3284 211.328 82 210.5 82C209.672 82 209 81.3284 209 80.5C209 79.6716 209.672 79 210.5 79Z" fill="white" fill-opacity="0.2"/>
<path d="M210.5 60C211.328 60 212 60.6716 212 61.5C212 62.3284 211.328 63 210.5 63C209.672 63 209 62.3284 209 61.5C209 60.6716 209.672 60 210.5 60Z" fill="white" fill-opacity="0.2"/>
<path d="M210.5 41C211.328 41 212 41.6716 212 42.5C212 43.3284 211.328 44 210.5 44C209.672 44 209 43.3284 209 42.5C209 41.6716 209.672 41 210.5 41Z" fill="white" fill-opacity="0.2"/>
<path d="M210.5 22C211.328 22 212 22.6716 212 23.5C212 24.3284 211.328 25 210.5 25C209.672 25 209 24.3284 209 23.5C209 22.6716 209.672 22 210.5 22Z" fill="white" fill-opacity="0.2"/>
<path d="M210.5 3C211.328 3 212 3.67157 212 4.5C212 5.32843 211.328 6 210.5 6C209.672 6 209 5.32843 209 4.5C209 3.67157 209.672 3 210.5 3Z" fill="white" fill-opacity="0.2"/>
<path d="M210.5 -16C211.328 -16 212 -15.3284 212 -14.5C212 -13.6716 211.328 -13 210.5 -13C209.672 -13 209 -13.6716 209 -14.5C209 -15.3284 209.672 -16 210.5 -16Z" fill="white" fill-opacity="0.2"/>
<path d="M210.5 -35C211.328 -35 212 -34.3284 212 -33.5C212 -32.6716 211.328 -32 210.5 -32C209.672 -32 209 -32.6716 209 -33.5C209 -34.3284 209.672 -35 210.5 -35Z" fill="white" fill-opacity="0.2"/>
<path d="M229.5 288C230.328 288 231 288.672 231 289.5C231 290.328 230.328 291 229.5 291C228.672 291 228 290.328 228 289.5C228 288.672 228.672 288 229.5 288Z" fill="white" fill-opacity="0.2"/>
<path d="M229.5 269C230.328 269 231 269.672 231 270.5C231 271.328 230.328 272 229.5 272C228.672 272 228 271.328 228 270.5C228 269.672 228.672 269 229.5 269Z" fill="white" fill-opacity="0.2"/>
<path d="M229.5 250C230.328 250 231 250.672 231 251.5C231 252.328 230.328 253 229.5 253C228.672 253 228 252.328 228 251.5C228 250.672 228.672 250 229.5 250Z" fill="white" fill-opacity="0.2"/>
<path d="M229.5 231C230.328 231 231 231.672 231 232.5C231 233.328 230.328 234 229.5 234C228.672 234 228 233.328 228 232.5C228 231.672 228.672 231 229.5 231Z" fill="white" fill-opacity="0.2"/>
<path d="M229.5 212C230.328 212 231 212.672 231 213.5C231 214.328 230.328 215 229.5 215C228.672 215 228 214.328 228 213.5C228 212.672 228.672 212 229.5 212Z" fill="white" fill-opacity="0.2"/>
<path d="M229.5 193C230.328 193 231 193.672 231 194.5C231 195.328 230.328 196 229.5 196C228.672 196 228 195.328 228 194.5C228 193.672 228.672 193 229.5 193Z" fill="white" fill-opacity="0.2"/>
<path d="M229.5 174C230.328 174 231 174.672 231 175.5C231 176.328 230.328 177 229.5 177C228.672 177 228 176.328 228 175.5C228 174.672 228.672 174 229.5 174Z" fill="white" fill-opacity="0.2"/>
<path d="M229.5 155C230.328 155 231 155.672 231 156.5C231 157.328 230.328 158 229.5 158C228.672 158 228 157.328 228 156.5C228 155.672 228.672 155 229.5 155Z" fill="white" fill-opacity="0.2"/>
<path d="M229.5 136C230.328 136 231 136.672 231 137.5C231 138.328 230.328 139 229.5 139C228.672 139 228 138.328 228 137.5C228 136.672 228.672 136 229.5 136Z" fill="white" fill-opacity="0.2"/>
<path d="M229.5 117C230.328 117 231 117.672 231 118.5C231 119.328 230.328 120 229.5 120C228.672 120 228 119.328 228 118.5C228 117.672 228.672 117 229.5 117Z" fill="white" fill-opacity="0.2"/>
<path d="M229.5 98C230.328 98 231 98.6716 231 99.5C231 100.328 230.328 101 229.5 101C228.672 101 228 100.328 228 99.5C228 98.6716 228.672 98 229.5 98Z" fill="white" fill-opacity="0.2"/>
<path d="M229.5 79C230.328 79 231 79.6716 231 80.5C231 81.3284 230.328 82 229.5 82C228.672 82 228 81.3284 228 80.5C228 79.6716 228.672 79 229.5 79Z" fill="white" fill-opacity="0.2"/>
<path d="M229.5 60C230.328 60 231 60.6716 231 61.5C231 62.3284 230.328 63 229.5 63C228.672 63 228 62.3284 228 61.5C228 60.6716 228.672 60 229.5 60Z" fill="white" fill-opacity="0.2"/>
<path d="M229.5 41C230.328 41 231 41.6716 231 42.5C231 43.3284 230.328 44 229.5 44C228.672 44 228 43.3284 228 42.5C228 41.6716 228.672 41 229.5 41Z" fill="white" fill-opacity="0.2"/>
<path d="M229.5 22C230.328 22 231 22.6716 231 23.5C231 24.3284 230.328 25 229.5 25C228.672 25 228 24.3284 228 23.5C228 22.6716 228.672 22 229.5 22Z" fill="white" fill-opacity="0.2"/>
<path d="M229.5 3C230.328 3 231 3.67157 231 4.5C231 5.32843 230.328 6 229.5 6C228.672 6 228 5.32843 228 4.5C228 3.67157 228.672 3 229.5 3Z" fill="white" fill-opacity="0.2"/>
<path d="M229.5 -16C230.328 -16 231 -15.3284 231 -14.5C231 -13.6716 230.328 -13 229.5 -13C228.672 -13 228 -13.6716 228 -14.5C228 -15.3284 228.672 -16 229.5 -16Z" fill="white" fill-opacity="0.2"/>
<path d="M229.5 -35C230.328 -35 231 -34.3284 231 -33.5C231 -32.6716 230.328 -32 229.5 -32C228.672 -32 228 -32.6716 228 -33.5C228 -34.3284 228.672 -35 229.5 -35Z" fill="white" fill-opacity="0.2"/>
<path d="M248.5 288C249.328 288 250 288.672 250 289.5C250 290.328 249.328 291 248.5 291C247.672 291 247 290.328 247 289.5C247 288.672 247.672 288 248.5 288Z" fill="white" fill-opacity="0.2"/>
<path d="M248.5 269C249.328 269 250 269.672 250 270.5C250 271.328 249.328 272 248.5 272C247.672 272 247 271.328 247 270.5C247 269.672 247.672 269 248.5 269Z" fill="white" fill-opacity="0.2"/>
<path d="M248.5 250C249.328 250 250 250.672 250 251.5C250 252.328 249.328 253 248.5 253C247.672 253 247 252.328 247 251.5C247 250.672 247.672 250 248.5 250Z" fill="white" fill-opacity="0.2"/>
<path d="M248.5 231C249.328 231 250 231.672 250 232.5C250 233.328 249.328 234 248.5 234C247.672 234 247 233.328 247 232.5C247 231.672 247.672 231 248.5 231Z" fill="white" fill-opacity="0.2"/>
<path d="M248.5 212C249.328 212 250 212.672 250 213.5C250 214.328 249.328 215 248.5 215C247.672 215 247 214.328 247 213.5C247 212.672 247.672 212 248.5 212Z" fill="white" fill-opacity="0.2"/>
<path d="M248.5 193C249.328 193 250 193.672 250 194.5C250 195.328 249.328 196 248.5 196C247.672 196 247 195.328 247 194.5C247 193.672 247.672 193 248.5 193Z" fill="white" fill-opacity="0.2"/>
<path d="M248.5 174C249.328 174 250 174.672 250 175.5C250 176.328 249.328 177 248.5 177C247.672 177 247 176.328 247 175.5C247 174.672 247.672 174 248.5 174Z" fill="white" fill-opacity="0.2"/>
<path d="M248.5 155C249.328 155 250 155.672 250 156.5C250 157.328 249.328 158 248.5 158C247.672 158 247 157.328 247 156.5C247 155.672 247.672 155 248.5 155Z" fill="white" fill-opacity="0.2"/>
<path d="M248.5 136C249.328 136 250 136.672 250 137.5C250 138.328 249.328 139 248.5 139C247.672 139 247 138.328 247 137.5C247 136.672 247.672 136 248.5 136Z" fill="white" fill-opacity="0.2"/>
<path d="M248.5 117C249.328 117 250 117.672 250 118.5C250 119.328 249.328 120 248.5 120C247.672 120 247 119.328 247 118.5C247 117.672 247.672 117 248.5 117Z" fill="white" fill-opacity="0.2"/>
<path d="M248.5 98C249.328 98 250 98.6716 250 99.5C250 100.328 249.328 101 248.5 101C247.672 101 247 100.328 247 99.5C247 98.6716 247.672 98 248.5 98Z" fill="white" fill-opacity="0.2"/>
<path d="M248.5 79C249.328 79 250 79.6716 250 80.5C250 81.3284 249.328 82 248.5 82C247.672 82 247 81.3284 247 80.5C247 79.6716 247.672 79 248.5 79Z" fill="white" fill-opacity="0.2"/>
<path d="M248.5 60C249.328 60 250 60.6716 250 61.5C250 62.3284 249.328 63 248.5 63C247.672 63 247 62.3284 247 61.5C247 60.6716 247.672 60 248.5 60Z" fill="white" fill-opacity="0.2"/>
<path d="M248.5 41C249.328 41 250 41.6716 250 42.5C250 43.3284 249.328 44 248.5 44C247.672 44 247 43.3284 247 42.5C247 41.6716 247.672 41 248.5 41Z" fill="white" fill-opacity="0.2"/>
<path d="M248.5 22C249.328 22 250 22.6716 250 23.5C250 24.3284 249.328 25 248.5 25C247.672 25 247 24.3284 247 23.5C247 22.6716 247.672 22 248.5 22Z" fill="white" fill-opacity="0.2"/>
<path d="M248.5 3C249.328 3 250 3.67157 250 4.5C250 5.32843 249.328 6 248.5 6C247.672 6 247 5.32843 247 4.5C247 3.67157 247.672 3 248.5 3Z" fill="white" fill-opacity="0.2"/>
<path d="M248.5 -16C249.328 -16 250 -15.3284 250 -14.5C250 -13.6716 249.328 -13 248.5 -13C247.672 -13 247 -13.6716 247 -14.5C247 -15.3284 247.672 -16 248.5 -16Z" fill="white" fill-opacity="0.2"/>
<path d="M248.5 -35C249.328 -35 250 -34.3284 250 -33.5C250 -32.6716 249.328 -32 248.5 -32C247.672 -32 247 -32.6716 247 -33.5C247 -34.3284 247.672 -35 248.5 -35Z" fill="white" fill-opacity="0.2"/>
<path d="M267.5 288C268.328 288 269 288.672 269 289.5C269 290.328 268.328 291 267.5 291C266.672 291 266 290.328 266 289.5C266 288.672 266.672 288 267.5 288Z" fill="white" fill-opacity="0.2"/>
<path d="M267.5 269C268.328 269 269 269.672 269 270.5C269 271.328 268.328 272 267.5 272C266.672 272 266 271.328 266 270.5C266 269.672 266.672 269 267.5 269Z" fill="white" fill-opacity="0.2"/>
<path d="M267.5 250C268.328 250 269 250.672 269 251.5C269 252.328 268.328 253 267.5 253C266.672 253 266 252.328 266 251.5C266 250.672 266.672 250 267.5 250Z" fill="white" fill-opacity="0.2"/>
<path d="M267.5 231C268.328 231 269 231.672 269 232.5C269 233.328 268.328 234 267.5 234C266.672 234 266 233.328 266 232.5C266 231.672 266.672 231 267.5 231Z" fill="white" fill-opacity="0.2"/>
<path d="M267.5 212C268.328 212 269 212.672 269 213.5C269 214.328 268.328 215 267.5 215C266.672 215 266 214.328 266 213.5C266 212.672 266.672 212 267.5 212Z" fill="white" fill-opacity="0.2"/>
<path d="M267.5 193C268.328 193 269 193.672 269 194.5C269 195.328 268.328 196 267.5 196C266.672 196 266 195.328 266 194.5C266 193.672 266.672 193 267.5 193Z" fill="white" fill-opacity="0.2"/>
<path d="M267.5 174C268.328 174 269 174.672 269 175.5C269 176.328 268.328 177 267.5 177C266.672 177 266 176.328 266 175.5C266 174.672 266.672 174 267.5 174Z" fill="white" fill-opacity="0.2"/>
<path d="M267.5 155C268.328 155 269 155.672 269 156.5C269 157.328 268.328 158 267.5 158C266.672 158 266 157.328 266 156.5C266 155.672 266.672 155 267.5 155Z" fill="white" fill-opacity="0.2"/>
<path d="M267.5 136C268.328 136 269 136.672 269 137.5C269 138.328 268.328 139 267.5 139C266.672 139 266 138.328 266 137.5C266 136.672 266.672 136 267.5 136Z" fill="white" fill-opacity="0.2"/>
<path d="M267.5 117C268.328 117 269 117.672 269 118.5C269 119.328 268.328 120 267.5 120C266.672 120 266 119.328 266 118.5C266 117.672 266.672 117 267.5 117Z" fill="white" fill-opacity="0.2"/>
<path d="M267.5 98C268.328 98 269 98.6716 269 99.5C269 100.328 268.328 101 267.5 101C266.672 101 266 100.328 266 99.5C266 98.6716 266.672 98 267.5 98Z" fill="white" fill-opacity="0.2"/>
<path d="M267.5 79C268.328 79 269 79.6716 269 80.5C269 81.3284 268.328 82 267.5 82C266.672 82 266 81.3284 266 80.5C266 79.6716 266.672 79 267.5 79Z" fill="white" fill-opacity="0.2"/>
<path d="M267.5 60C268.328 60 269 60.6716 269 61.5C269 62.3284 268.328 63 267.5 63C266.672 63 266 62.3284 266 61.5C266 60.6716 266.672 60 267.5 60Z" fill="white" fill-opacity="0.2"/>
<path d="M267.5 41C268.328 41 269 41.6716 269 42.5C269 43.3284 268.328 44 267.5 44C266.672 44 266 43.3284 266 42.5C266 41.6716 266.672 41 267.5 41Z" fill="white" fill-opacity="0.2"/>
<path d="M267.5 22C268.328 22 269 22.6716 269 23.5C269 24.3284 268.328 25 267.5 25C266.672 25 266 24.3284 266 23.5C266 22.6716 266.672 22 267.5 22Z" fill="white" fill-opacity="0.2"/>
<path d="M267.5 3C268.328 3 269 3.67157 269 4.5C269 5.32843 268.328 6 267.5 6C266.672 6 266 5.32843 266 4.5C266 3.67157 266.672 3 267.5 3Z" fill="white" fill-opacity="0.2"/>
<path d="M267.5 -16C268.328 -16 269 -15.3284 269 -14.5C269 -13.6716 268.328 -13 267.5 -13C266.672 -13 266 -13.6716 266 -14.5C266 -15.3284 266.672 -16 267.5 -16Z" fill="white" fill-opacity="0.2"/>
<path d="M267.5 -35C268.328 -35 269 -34.3284 269 -33.5C269 -32.6716 268.328 -32 267.5 -32C266.672 -32 266 -32.6716 266 -33.5C266 -34.3284 266.672 -35 267.5 -35Z" fill="white" fill-opacity="0.2"/>
<path d="M286.5 288C287.328 288 288 288.672 288 289.5C288 290.328 287.328 291 286.5 291C285.672 291 285 290.328 285 289.5C285 288.672 285.672 288 286.5 288Z" fill="white" fill-opacity="0.2"/>
<path d="M286.5 269C287.328 269 288 269.672 288 270.5C288 271.328 287.328 272 286.5 272C285.672 272 285 271.328 285 270.5C285 269.672 285.672 269 286.5 269Z" fill="white" fill-opacity="0.2"/>
<path d="M286.5 250C287.328 250 288 250.672 288 251.5C288 252.328 287.328 253 286.5 253C285.672 253 285 252.328 285 251.5C285 250.672 285.672 250 286.5 250Z" fill="white" fill-opacity="0.2"/>
<path d="M286.5 231C287.328 231 288 231.672 288 232.5C288 233.328 287.328 234 286.5 234C285.672 234 285 233.328 285 232.5C285 231.672 285.672 231 286.5 231Z" fill="white" fill-opacity="0.2"/>
<path d="M286.5 212C287.328 212 288 212.672 288 213.5C288 214.328 287.328 215 286.5 215C285.672 215 285 214.328 285 213.5C285 212.672 285.672 212 286.5 212Z" fill="white" fill-opacity="0.2"/>
<path d="M286.5 193C287.328 193 288 193.672 288 194.5C288 195.328 287.328 196 286.5 196C285.672 196 285 195.328 285 194.5C285 193.672 285.672 193 286.5 193Z" fill="white" fill-opacity="0.2"/>
<path d="M286.5 174C287.328 174 288 174.672 288 175.5C288 176.328 287.328 177 286.5 177C285.672 177 285 176.328 285 175.5C285 174.672 285.672 174 286.5 174Z" fill="white" fill-opacity="0.2"/>
<path d="M286.5 155C287.328 155 288 155.672 288 156.5C288 157.328 287.328 158 286.5 158C285.672 158 285 157.328 285 156.5C285 155.672 285.672 155 286.5 155Z" fill="white" fill-opacity="0.2"/>
<path d="M286.5 136C287.328 136 288 136.672 288 137.5C288 138.328 287.328 139 286.5 139C285.672 139 285 138.328 285 137.5C285 136.672 285.672 136 286.5 136Z" fill="white" fill-opacity="0.2"/>
<path d="M286.5 117C287.328 117 288 117.672 288 118.5C288 119.328 287.328 120 286.5 120C285.672 120 285 119.328 285 118.5C285 117.672 285.672 117 286.5 117Z" fill="white" fill-opacity="0.2"/>
<path d="M286.5 98C287.328 98 288 98.6716 288 99.5C288 100.328 287.328 101 286.5 101C285.672 101 285 100.328 285 99.5C285 98.6716 285.672 98 286.5 98Z" fill="white" fill-opacity="0.2"/>
<path d="M286.5 79C287.328 79 288 79.6716 288 80.5C288 81.3284 287.328 82 286.5 82C285.672 82 285 81.3284 285 80.5C285 79.6716 285.672 79 286.5 79Z" fill="white" fill-opacity="0.2"/>
<path d="M286.5 60C287.328 60 288 60.6716 288 61.5C288 62.3284 287.328 63 286.5 63C285.672 63 285 62.3284 285 61.5C285 60.6716 285.672 60 286.5 60Z" fill="white" fill-opacity="0.2"/>
<path d="M286.5 41C287.328 41 288 41.6716 288 42.5C288 43.3284 287.328 44 286.5 44C285.672 44 285 43.3284 285 42.5C285 41.6716 285.672 41 286.5 41Z" fill="white" fill-opacity="0.2"/>
<path d="M286.5 22C287.328 22 288 22.6716 288 23.5C288 24.3284 287.328 25 286.5 25C285.672 25 285 24.3284 285 23.5C285 22.6716 285.672 22 286.5 22Z" fill="white" fill-opacity="0.2"/>
<path d="M286.5 3C287.328 3 288 3.67157 288 4.5C288 5.32843 287.328 6 286.5 6C285.672 6 285 5.32843 285 4.5C285 3.67157 285.672 3 286.5 3Z" fill="white" fill-opacity="0.2"/>
<path d="M286.5 -16C287.328 -16 288 -15.3284 288 -14.5C288 -13.6716 287.328 -13 286.5 -13C285.672 -13 285 -13.6716 285 -14.5C285 -15.3284 285.672 -16 286.5 -16Z" fill="white" fill-opacity="0.2"/>
<path d="M286.5 -35C287.328 -35 288 -34.3284 288 -33.5C288 -32.6716 287.328 -32 286.5 -32C285.672 -32 285 -32.6716 285 -33.5C285 -34.3284 285.672 -35 286.5 -35Z" fill="white" fill-opacity="0.2"/>
<path d="M305.5 288C306.328 288 307 288.672 307 289.5C307 290.328 306.328 291 305.5 291C304.672 291 304 290.328 304 289.5C304 288.672 304.672 288 305.5 288Z" fill="white" fill-opacity="0.2"/>
<path d="M305.5 269C306.328 269 307 269.672 307 270.5C307 271.328 306.328 272 305.5 272C304.672 272 304 271.328 304 270.5C304 269.672 304.672 269 305.5 269Z" fill="white" fill-opacity="0.2"/>
<path d="M305.5 250C306.328 250 307 250.672 307 251.5C307 252.328 306.328 253 305.5 253C304.672 253 304 252.328 304 251.5C304 250.672 304.672 250 305.5 250Z" fill="white" fill-opacity="0.2"/>
<path d="M305.5 231C306.328 231 307 231.672 307 232.5C307 233.328 306.328 234 305.5 234C304.672 234 304 233.328 304 232.5C304 231.672 304.672 231 305.5 231Z" fill="white" fill-opacity="0.2"/>
<path d="M305.5 212C306.328 212 307 212.672 307 213.5C307 214.328 306.328 215 305.5 215C304.672 215 304 214.328 304 213.5C304 212.672 304.672 212 305.5 212Z" fill="white" fill-opacity="0.2"/>
<path d="M305.5 193C306.328 193 307 193.672 307 194.5C307 195.328 306.328 196 305.5 196C304.672 196 304 195.328 304 194.5C304 193.672 304.672 193 305.5 193Z" fill="white" fill-opacity="0.2"/>
<path d="M305.5 174C306.328 174 307 174.672 307 175.5C307 176.328 306.328 177 305.5 177C304.672 177 304 176.328 304 175.5C304 174.672 304.672 174 305.5 174Z" fill="white" fill-opacity="0.2"/>
<path d="M305.5 155C306.328 155 307 155.672 307 156.5C307 157.328 306.328 158 305.5 158C304.672 158 304 157.328 304 156.5C304 155.672 304.672 155 305.5 155Z" fill="white" fill-opacity="0.2"/>
<path d="M305.5 136C306.328 136 307 136.672 307 137.5C307 138.328 306.328 139 305.5 139C304.672 139 304 138.328 304 137.5C304 136.672 304.672 136 305.5 136Z" fill="white" fill-opacity="0.2"/>
<path d="M305.5 117C306.328 117 307 117.672 307 118.5C307 119.328 306.328 120 305.5 120C304.672 120 304 119.328 304 118.5C304 117.672 304.672 117 305.5 117Z" fill="white" fill-opacity="0.2"/>
<path d="M305.5 98C306.328 98 307 98.6716 307 99.5C307 100.328 306.328 101 305.5 101C304.672 101 304 100.328 304 99.5C304 98.6716 304.672 98 305.5 98Z" fill="white" fill-opacity="0.2"/>
<path d="M305.5 79C306.328 79 307 79.6716 307 80.5C307 81.3284 306.328 82 305.5 82C304.672 82 304 81.3284 304 80.5C304 79.6716 304.672 79 305.5 79Z" fill="white" fill-opacity="0.2"/>
<path d="M305.5 60C306.328 60 307 60.6716 307 61.5C307 62.3284 306.328 63 305.5 63C304.672 63 304 62.3284 304 61.5C304 60.6716 304.672 60 305.5 60Z" fill="white" fill-opacity="0.2"/>
<path d="M305.5 41C306.328 41 307 41.6716 307 42.5C307 43.3284 306.328 44 305.5 44C304.672 44 304 43.3284 304 42.5C304 41.6716 304.672 41 305.5 41Z" fill="white" fill-opacity="0.2"/>
<path d="M305.5 22C306.328 22 307 22.6716 307 23.5C307 24.3284 306.328 25 305.5 25C304.672 25 304 24.3284 304 23.5C304 22.6716 304.672 22 305.5 22Z" fill="white" fill-opacity="0.2"/>
<path d="M305.5 3C306.328 3 307 3.67157 307 4.5C307 5.32843 306.328 6 305.5 6C304.672 6 304 5.32843 304 4.5C304 3.67157 304.672 3 305.5 3Z" fill="white" fill-opacity="0.2"/>
<path d="M305.5 -16C306.328 -16 307 -15.3284 307 -14.5C307 -13.6716 306.328 -13 305.5 -13C304.672 -13 304 -13.6716 304 -14.5C304 -15.3284 304.672 -16 305.5 -16Z" fill="white" fill-opacity="0.2"/>
<path d="M305.5 -35C306.328 -35 307 -34.3284 307 -33.5C307 -32.6716 306.328 -32 305.5 -32C304.672 -32 304 -32.6716 304 -33.5C304 -34.3284 304.672 -35 305.5 -35Z" fill="white" fill-opacity="0.2"/>
<path d="M324.5 288C325.328 288 326 288.672 326 289.5C326 290.328 325.328 291 324.5 291C323.672 291 323 290.328 323 289.5C323 288.672 323.672 288 324.5 288Z" fill="white" fill-opacity="0.2"/>
<path d="M324.5 269C325.328 269 326 269.672 326 270.5C326 271.328 325.328 272 324.5 272C323.672 272 323 271.328 323 270.5C323 269.672 323.672 269 324.5 269Z" fill="white" fill-opacity="0.2"/>
<path d="M324.5 250C325.328 250 326 250.672 326 251.5C326 252.328 325.328 253 324.5 253C323.672 253 323 252.328 323 251.5C323 250.672 323.672 250 324.5 250Z" fill="white" fill-opacity="0.2"/>
<path d="M324.5 231C325.328 231 326 231.672 326 232.5C326 233.328 325.328 234 324.5 234C323.672 234 323 233.328 323 232.5C323 231.672 323.672 231 324.5 231Z" fill="white" fill-opacity="0.2"/>
<path d="M324.5 212C325.328 212 326 212.672 326 213.5C326 214.328 325.328 215 324.5 215C323.672 215 323 214.328 323 213.5C323 212.672 323.672 212 324.5 212Z" fill="white" fill-opacity="0.2"/>
<path d="M324.5 193C325.328 193 326 193.672 326 194.5C326 195.328 325.328 196 324.5 196C323.672 196 323 195.328 323 194.5C323 193.672 323.672 193 324.5 193Z" fill="white" fill-opacity="0.2"/>
<path d="M324.5 174C325.328 174 326 174.672 326 175.5C326 176.328 325.328 177 324.5 177C323.672 177 323 176.328 323 175.5C323 174.672 323.672 174 324.5 174Z" fill="white" fill-opacity="0.2"/>
<path d="M324.5 155C325.328 155 326 155.672 326 156.5C326 157.328 325.328 158 324.5 158C323.672 158 323 157.328 323 156.5C323 155.672 323.672 155 324.5 155Z" fill="white" fill-opacity="0.2"/>
<path d="M324.5 136C325.328 136 326 136.672 326 137.5C326 138.328 325.328 139 324.5 139C323.672 139 323 138.328 323 137.5C323 136.672 323.672 136 324.5 136Z" fill="white" fill-opacity="0.2"/>
<path d="M324.5 117C325.328 117 326 117.672 326 118.5C326 119.328 325.328 120 324.5 120C323.672 120 323 119.328 323 118.5C323 117.672 323.672 117 324.5 117Z" fill="white" fill-opacity="0.2"/>
<path d="M324.5 98C325.328 98 326 98.6716 326 99.5C326 100.328 325.328 101 324.5 101C323.672 101 323 100.328 323 99.5C323 98.6716 323.672 98 324.5 98Z" fill="white" fill-opacity="0.2"/>
<path d="M324.5 79C325.328 79 326 79.6716 326 80.5C326 81.3284 325.328 82 324.5 82C323.672 82 323 81.3284 323 80.5C323 79.6716 323.672 79 324.5 79Z" fill="white" fill-opacity="0.2"/>
<path d="M324.5 60C325.328 60 326 60.6716 326 61.5C326 62.3284 325.328 63 324.5 63C323.672 63 323 62.3284 323 61.5C323 60.6716 323.672 60 324.5 60Z" fill="white" fill-opacity="0.2"/>
<path d="M324.5 41C325.328 41 326 41.6716 326 42.5C326 43.3284 325.328 44 324.5 44C323.672 44 323 43.3284 323 42.5C323 41.6716 323.672 41 324.5 41Z" fill="white" fill-opacity="0.2"/>
<path d="M324.5 22C325.328 22 326 22.6716 326 23.5C326 24.3284 325.328 25 324.5 25C323.672 25 323 24.3284 323 23.5C323 22.6716 323.672 22 324.5 22Z" fill="white" fill-opacity="0.2"/>
<path d="M324.5 3C325.328 3 326 3.67157 326 4.5C326 5.32843 325.328 6 324.5 6C323.672 6 323 5.32843 323 4.5C323 3.67157 323.672 3 324.5 3Z" fill="white" fill-opacity="0.2"/>
<path d="M324.5 -16C325.328 -16 326 -15.3284 326 -14.5C326 -13.6716 325.328 -13 324.5 -13C323.672 -13 323 -13.6716 323 -14.5C323 -15.3284 323.672 -16 324.5 -16Z" fill="white" fill-opacity="0.2"/>
<path d="M324.5 -35C325.328 -35 326 -34.3284 326 -33.5C326 -32.6716 325.328 -32 324.5 -32C323.672 -32 323 -32.6716 323 -33.5C323 -34.3284 323.672 -35 324.5 -35Z" fill="white" fill-opacity="0.2"/>
</svg>
