<svg width="128" height="16" viewBox="0 0 128 16" fill="none" xmlns="http://www.w3.org/2000/svg">
<path d="M119.903 9.02563V15.7721H116.667V0.212708H119.812V6.16143H119.949C120.212 5.47261 120.638 4.93319 121.225 4.5432C121.813 4.14814 122.55 3.9506 123.436 3.9506C124.246 3.9506 124.953 4.12788 125.556 4.48242C126.163 4.8319 126.634 5.33585 126.969 5.99429C127.308 6.64766 127.475 7.43019 127.47 8.34187V15.7721H124.234V8.91927C124.239 8.20006 124.056 7.64038 123.687 7.24026C123.322 6.84013 122.81 6.64007 122.152 6.64007C121.711 6.64007 121.321 6.73377 120.982 6.92117C120.648 7.10857 120.384 7.38207 120.192 7.74168C120.005 8.09623 119.908 8.52421 119.903 9.02563Z" fill="#101828"/>
<path d="M109.383 16C108.188 16 107.159 15.7467 106.298 15.2403C105.442 14.7287 104.784 14.0196 104.323 13.113C103.867 12.2064 103.639 11.163 103.639 9.98289C103.639 8.78757 103.87 7.73914 104.331 6.83758C104.797 5.93097 105.458 5.22441 106.314 4.71792C107.17 4.20637 108.188 3.95059 109.368 3.95059C110.386 3.95059 111.277 4.13546 112.042 4.5052C112.807 4.87494 113.412 5.39409 113.858 6.06266C114.303 6.73122 114.549 7.51628 114.595 8.41783H111.541C111.454 7.83537 111.226 7.36687 110.857 7.01232C110.492 6.65272 110.013 6.47291 109.421 6.47291C108.919 6.47291 108.481 6.60966 108.107 6.88317C107.737 7.15161 107.448 7.54414 107.24 8.06076C107.033 8.57738 106.929 9.20289 106.929 9.9373C106.929 10.6818 107.03 11.315 107.233 11.8366C107.44 12.3583 107.732 12.7559 108.107 13.0294C108.481 13.3029 108.919 13.4397 109.421 13.4397C109.791 13.4397 110.122 13.3637 110.416 13.2118C110.715 13.0598 110.961 12.8395 111.153 12.5508C111.351 12.257 111.48 11.905 111.541 11.4948H114.595C114.544 12.3862 114.301 13.1712 113.865 13.8499C113.435 14.5236 112.84 15.0503 112.08 15.4302C111.32 15.8101 110.421 16 109.383 16Z" fill="#101828"/>
<path d="M95.0277 15.9924C94.2831 15.9924 93.6196 15.8632 93.0372 15.6049C92.4547 15.3416 91.9938 14.9541 91.6544 14.4425C91.3202 13.9259 91.153 13.2827 91.153 12.5128C91.153 11.8645 91.272 11.32 91.5101 10.8794C91.7481 10.4387 92.0723 10.0842 92.4826 9.81575C92.8928 9.54731 93.3588 9.34471 93.8805 9.20796C94.4072 9.07121 94.9593 8.97497 95.5367 8.91926C96.2154 8.84835 96.7624 8.78251 97.1777 8.72173C97.593 8.65588 97.8944 8.55965 98.0818 8.43303C98.2692 8.30641 98.3629 8.119 98.3629 7.87082V7.82524C98.3629 7.34407 98.2109 6.9718 97.9071 6.70843C97.6082 6.44505 97.1828 6.31337 96.6307 6.31337C96.0482 6.31337 95.5848 6.44252 95.2404 6.70083C94.896 6.95408 94.6681 7.27317 94.5566 7.6581L91.5633 7.41498C91.7152 6.7059 92.014 6.09304 92.4598 5.57642C92.9055 5.05474 93.4803 4.65461 94.1844 4.37604C94.8934 4.09241 95.714 3.95059 96.6459 3.95059C97.2942 3.95059 97.9147 4.02657 98.5073 4.17851C99.1049 4.33046 99.6342 4.56598 100.095 4.88507C100.561 5.20415 100.928 5.61441 101.197 6.11584C101.465 6.6122 101.599 7.20732 101.599 7.90121V15.7721H98.53V14.1538H98.4389C98.2515 14.5185 98.0008 14.8401 97.6867 15.1187C97.3727 15.3922 96.9954 15.6075 96.5547 15.7645C96.1141 15.9164 95.6051 15.9924 95.0277 15.9924ZM95.9545 13.7588C96.4306 13.7588 96.851 13.6651 97.2157 13.4777C97.5804 13.2852 97.8665 13.0269 98.0742 12.7027C98.2819 12.3786 98.3857 12.0114 98.3857 11.6011V10.3628C98.2844 10.4286 98.1451 10.4894 97.9678 10.5451C97.7956 10.5957 97.6006 10.6439 97.3828 10.6894C97.1651 10.73 96.9473 10.7679 96.7295 10.8034C96.5117 10.8338 96.3141 10.8616 96.1369 10.887C95.757 10.9427 95.4253 11.0313 95.1416 11.1529C94.858 11.2744 94.6377 11.439 94.4806 11.6467C94.3236 11.8493 94.2451 12.1025 94.2451 12.4064C94.2451 12.8471 94.4047 13.1839 94.7238 13.4169C95.0479 13.6448 95.4582 13.7588 95.9545 13.7588Z" fill="#101828"/>
<path d="M83.8519 16C82.6718 16 81.6512 15.7493 80.7901 15.2479C79.9342 14.7414 79.2732 14.0373 78.8072 13.1358C78.3413 12.2292 78.1083 11.1782 78.1083 9.98289C78.1083 8.77744 78.3413 7.72394 78.8072 6.82239C79.2732 5.91577 79.9342 5.21175 80.7901 4.71033C81.6512 4.20384 82.6718 3.95059 83.8519 3.95059C85.032 3.95059 86.05 4.20384 86.906 4.71033C87.767 5.21175 88.4305 5.91577 88.8965 6.82239C89.3625 7.72394 89.5955 8.77744 89.5955 9.98289C89.5955 11.1782 89.3625 12.2292 88.8965 13.1358C88.4305 14.0373 87.767 14.7414 86.906 15.2479C86.05 15.7493 85.032 16 83.8519 16ZM83.8671 13.4929C84.404 13.4929 84.8522 13.3409 85.2118 13.037C85.5714 12.7281 85.8424 12.3077 86.0247 11.7759C86.2121 11.244 86.3058 10.6388 86.3058 9.9601C86.3058 9.2814 86.2121 8.67614 86.0247 8.14433C85.8424 7.61252 85.5714 7.19213 85.2118 6.88317C84.8522 6.57421 84.404 6.41973 83.8671 6.41973C83.3251 6.41973 82.8693 6.57421 82.4995 6.88317C82.1349 7.19213 81.8588 7.61252 81.6714 8.14433C81.4891 8.67614 81.3979 9.2814 81.3979 9.9601C81.3979 10.6388 81.4891 11.244 81.6714 11.7759C81.8588 12.3077 82.1349 12.7281 82.4995 13.037C82.8693 13.3409 83.3251 13.4929 83.8671 13.4929Z" fill="#101828"/>
<path d="M76.2812 5.66003H72.9535C72.8928 5.22951 72.7687 4.84711 72.5813 4.51283C72.3939 4.17348 72.1533 3.88478 71.8595 3.64673C71.5658 3.40868 71.2264 3.22634 70.8415 3.09972C70.4616 2.9731 70.0488 2.90979 69.6031 2.90979C68.7978 2.90979 68.0963 3.10985 67.4986 3.50998C66.901 3.90504 66.4375 4.48244 66.1083 5.24217C65.7791 5.99684 65.6145 6.91359 65.6145 7.99241C65.6145 9.10163 65.7791 10.0336 66.1083 10.7882C66.4426 11.5429 66.9086 12.1127 67.5062 12.4976C68.1039 12.8826 68.7953 13.075 69.5803 13.075C70.021 13.075 70.4287 13.0168 70.8035 12.9003C71.1834 12.7838 71.5202 12.6141 71.8139 12.3913C72.1077 12.1634 72.3508 11.8873 72.5433 11.5632C72.7408 11.239 72.8776 10.8693 72.9535 10.454L76.2812 10.4692C76.1951 11.1833 75.9798 11.8721 75.6354 12.5356C75.2961 13.1941 74.8377 13.7841 74.2603 14.3058C73.688 14.8224 73.0042 15.2327 72.209 15.5366C71.4189 15.8354 70.5249 15.9848 69.5271 15.9848C68.1394 15.9848 66.8985 15.6708 65.8044 15.0428C64.7155 14.4147 63.8545 13.5056 63.2213 12.3153C62.5933 11.1251 62.2793 9.68409 62.2793 7.99241C62.2793 6.29567 62.5984 4.85218 63.2365 3.66192C63.8747 2.47167 64.7408 1.56505 65.8348 0.942072C66.9288 0.314024 68.1596 0 69.5271 0C70.4287 0 71.2644 0.126623 72.0343 0.379868C72.8092 0.633113 73.4955 1.00285 74.0931 1.48908C74.6908 1.97025 75.177 2.56031 75.5518 3.25926C75.9317 3.95822 76.1748 4.75847 76.2812 5.66003Z" fill="#101828"/>
<path d="M52.0229 4.68757C51.9621 4.07471 51.7012 3.59861 51.2403 3.25926C50.7794 2.91992 50.1539 2.75024 49.3638 2.75024C48.8269 2.75024 48.3736 2.82621 48.0039 2.97816C47.6341 3.12504 47.3505 3.33017 47.153 3.59355C46.9605 3.85692 46.8643 4.15575 46.8643 4.49004C46.8541 4.7686 46.9124 5.01172 47.039 5.21938C47.1707 5.42704 47.3505 5.60685 47.5784 5.75879C47.8063 5.90567 48.0697 6.03483 48.3685 6.14626C48.6674 6.25262 48.9865 6.34379 49.3258 6.41976L50.7237 6.75405C51.4024 6.90599 52.0254 7.10859 52.5927 7.36183C53.1599 7.61508 53.6512 7.92657 54.0666 8.29631C54.4819 8.66605 54.8035 9.10163 55.0314 9.60305C55.2644 10.1045 55.3834 10.6793 55.3885 11.3277C55.3834 12.2799 55.1403 13.1054 54.6591 13.8044C54.183 14.4983 53.4942 15.0377 52.5927 15.4226C51.6962 15.8025 50.6148 15.9924 49.3486 15.9924C48.0925 15.9924 46.9985 15.8 46.0665 15.415C45.1397 15.0301 44.4154 14.4603 43.8937 13.7056C43.3771 12.9459 43.1061 12.0063 43.0808 10.887H46.2641C46.2995 11.4087 46.4489 11.8443 46.7123 12.1937C46.9808 12.5382 47.3378 12.799 47.7835 12.9763C48.2343 13.1485 48.7433 13.2346 49.3106 13.2346C49.8677 13.2346 50.3514 13.1535 50.7617 12.9915C51.177 12.8294 51.4986 12.604 51.7266 12.3153C51.9545 12.0266 52.0684 11.6949 52.0684 11.3201C52.0684 10.9706 51.9646 10.6768 51.757 10.4388C51.5544 10.2007 51.2555 9.99811 50.8605 9.83097C50.4705 9.66383 49.9918 9.51188 49.4246 9.37513L47.7304 8.94968C46.4185 8.63059 45.3828 8.1317 44.623 7.453C43.8633 6.7743 43.486 5.86009 43.491 4.71036C43.486 3.76829 43.7367 2.94524 44.2432 2.24122C44.7547 1.5372 45.4562 0.987656 46.3476 0.592593C47.2391 0.197531 48.252 0 49.3866 0C50.5414 0 51.5493 0.197531 52.4103 0.592593C53.2764 0.987656 53.9501 1.5372 54.4312 2.24122C54.9124 2.94524 55.1606 3.76069 55.1758 4.68757H52.0229Z" fill="#101828"/>
<path d="M28.6989 2.92496V0.212708H41.4777V2.92496H36.7141V15.7721H33.4625V2.92496H28.6989Z" fill="#101828"/>
<path d="M19.0959 15.7721V0.212708H22.3856V13.0598H29.0561V15.7721H19.0959Z" fill="#101828"/>
<path d="M5.99622 15.7721V0.212708H16.4806V2.92496H9.28587V6.63247H15.9411V9.34472H9.28587V13.0598H16.511V15.7721H5.99622Z" fill="#101828"/>
<path d="M3.28965 0.212708V15.7721H0V0.212708H3.28965Z" fill="#101828"/>
</svg>
