<svg width="32" height="30" viewBox="0 0 32 30" fill="none" xmlns="http://www.w3.org/2000/svg">
<path d="M16 27.4125C9.27999 27.4125 3.79999 22.2875 3.79999 15.975V13.625C3.79999 13.1375 4.22665 12.75 4.73332 12.75C5.23999 12.75 5.66665 13.15 5.66665 13.625V15.975C5.66665 21.3125 10.2933 25.65 15.9867 25.65C21.68 25.65 26.3067 21.3125 26.3067 15.975V13.625C26.3067 13.1375 26.7333 12.75 27.24 12.75C27.7467 12.75 28.1733 13.15 28.1733 13.625V15.975C28.2 22.2875 22.72 27.4125 16 27.4125Z" fill="#101828"/>
<path d="M16 2.5C11.52 2.5 7.86664 5.925 7.86664 10.125V15.9875C7.86664 20.1875 11.52 23.6125 16 23.6125C20.48 23.6125 24.1333 20.1875 24.1333 15.9875V10.125C24.1333 5.925 20.48 2.5 16 2.5ZM18.9066 13.2375C18.8133 13.575 18.48 13.8 18.12 13.8C18.0533 13.8 17.9733 13.7875 17.9066 13.775C16.5466 13.425 15.1066 13.425 13.7466 13.775C13.3066 13.8875 12.8666 13.65 12.7466 13.2375C12.6266 12.8375 12.88 12.4125 13.32 12.3C14.96 11.875 16.6933 11.875 18.3333 12.3C18.7733 12.4125 19.0266 12.825 18.9066 13.2375ZM20.04 9.775C19.92 10.0875 19.6133 10.275 19.28 10.275C19.1866 10.275 19.0933 10.2625 19 10.225C16.96 9.525 14.72 9.525 12.68 10.225C12.2533 10.375 11.7866 10.175 11.6266 9.775C11.48 9.3875 11.6933 8.95 12.12 8.8C14.52 7.9875 17.16 7.9875 19.5466 8.8C19.9733 8.95 20.1866 9.3875 20.04 9.775Z" fill="#1890FF"/>
</svg>
