<svg width="16" height="16" viewBox="0 0 16 16" fill="none" xmlns="http://www.w3.org/2000/svg">
<g clip-path="url(#clip0_33_78)">
<path d="M1.33333 8L7.76148 11.2141C7.84894 11.2578 7.89266 11.2797 7.93853 11.2883C7.97915 11.2959 8.02084 11.2959 8.06146 11.2883C8.10733 11.2797 8.15105 11.2578 8.23851 11.2141L14.6667 8M1.33333 11.3333L7.76148 14.5474C7.84894 14.5911 7.89266 14.613 7.93853 14.6216C7.97915 14.6292 8.02084 14.6292 8.06146 14.6216C8.10733 14.613 8.15105 14.5911 8.23851 14.5474L14.6667 11.3333M1.33333 4.66667L7.76148 1.45259C7.84894 1.40887 7.89266 1.387 7.93853 1.3784C7.97915 1.37078 8.02084 1.37078 8.06146 1.3784C8.10733 1.387 8.15105 1.40887 8.23851 1.45259L14.6667 4.66667L8.23851 7.88075C8.15105 7.92447 8.10733 7.94634 8.06146 7.95494C8.02084 7.96256 7.97915 7.96256 7.93853 7.95494C7.89266 7.94634 7.84894 7.92447 7.76148 7.88075L1.33333 4.66667Z" stroke="#D0D5DD" stroke-linecap="round" stroke-linejoin="round"/>
</g>
<defs>
<clipPath id="clip0_33_78">
<rect width="16" height="16" fill="white"/>
</clipPath>
</defs>
</svg>
