<svg width="16" height="16" viewBox="0 0 16 16" fill="none" xmlns="http://www.w3.org/2000/svg">
<g clip-path="url(#clip0_1_7229)">
<path d="M10.6666 5.33333V3.33333L12.6666 1.33333L13.3333 2.66666L14.6666 3.33333L12.6666 5.33333H10.6666ZM10.6666 5.33333L7.99998 7.99996M14.6667 8C14.6667 11.6819 11.6819 14.6667 8 14.6667C4.3181 14.6667 1.33333 11.6819 1.33333 8C1.33333 4.3181 4.3181 1.33333 8 1.33333M11.3333 8C11.3333 9.84094 9.84094 11.3333 8 11.3333C6.15905 11.3333 4.66666 9.84094 4.66666 8C4.66666 6.15905 6.15905 4.66666 8 4.66666" stroke="#339CFF" stroke-linecap="round" stroke-linejoin="round"/>
</g>
<defs>
<clipPath id="clip0_1_7229">
<rect width="16" height="16" fill="white"/>
</clipPath>
</defs>
</svg>
